<svg xmlns="http://www.w3.org/2000/svg" viewBox="0 0 45.35 68.03"><defs><style>.cls-1{fill:#fff}</style></defs><g id="Layer_2" data-name="Layer 2"><g id="Layer_1-2" data-name="Layer 1"><path class="cls-1" d="M45.35 0H0v68.03h45.35V0z"/><path d="M44.7.7v66.63H.66V.7H44.7"/><path class="cls-1" d="M2.74 2.77h39.88v18.67H2.74zM2.74 23.51h39.88v34.17H2.74zM2.73 65.24v-5.48h8v1.28H5.94v.79H10v1.27H5.94v.87h4.98v1.27H2.73zM17.72 61.36a.58.58 0 0 0-.46-.37 2.88 2.88 0 0 0-.83-.11c-.71 0-1 .12-1 .33 0 .81 5.65.3 5.65 2.29 0 1.27-1.9 1.89-4.6 1.89s-4.28-.84-4.34-1.83h3.08a.8.8 0 0 0 .53.43 2.9 2.9 0 0 0 .91.13c.81 0 1.34-.14 1.34-.4 0-.83-5.65-.26-5.65-2.35 0-1.16 1.8-1.75 4.26-1.75 2.72 0 4 .78 4.2 1.74zM25.86 62.14h1.27c1 0 1.53-.15 1.53-.52s-.55-.58-1.3-.58h-1.5zm0 1.19v1.91h-3.21v-5.48h4.63c3.27 0 4.35.5 4.35 1.57 0 .63-.5 1.16-1.65 1.34 1 .21 1.67.34 1.67 1.45 0 .71 0 1 .34 1v.16h-3.27a2.12 2.12 0 0 1-.16-1c0-.72-.22-1-1.71-1zM36.82 61v1h1.34c.64 0 1.11-.17 1.11-.48S38.63 61 38 61zm0 1.91v1h1.41c.79 0 1.39-.09 1.39-.5s-.75-.41-1.78-.41zm-3.21 2.29v-5.44h4.69c2.21 0 4 .3 4 1.38 0 .57-.66 1-1.28 1.19 1.06.16 1.63.67 1.63 1.26 0 1.22-1.67 1.65-4.23 1.65z"/><path d="M3.83 11.07V4.85h2.5v1H4.79v1.49h1.42v.95H4.79v1.82h1.59v1zM6.63 4.85h1l.71 4.52.8-4.52h.94l-1.2 6.22H7.76zM10.52 11.07V4.85H13v1h-1.52v1.49h1.41v.95h-1.41v1.82h1.59v1zM14.62 11.07h-.95V4.85h1.76a.94.94 0 0 1 .79.41 2.16 2.16 0 0 1 .28 1.22 2.32 2.32 0 0 1-.19 1 .91.91 0 0 1-.65.52l.21.05a.64.64 0 0 1 .28.15 1.13 1.13 0 0 1 .24.36 1.91 1.91 0 0 1 .1.66v1.49a2.58 2.58 0 0 0 .05.34h-.93a1.72 1.72 0 0 1-.1-.6v-.59-.52a1.46 1.46 0 0 0-.06-.44.69.69 0 0 0-.2-.3.72.72 0 0 0-.42-.11h-.25zm0-3.53h.43a.32.32 0 0 0 .23-.09.48.48 0 0 0 .15-.22 1 1 0 0 0 .08-.3 1.71 1.71 0 0 0 0-.31 1.18 1.18 0 0 0-.1-.62.44.44 0 0 0-.36-.19h-.43zM18 8.91l-1.2-4.06h1l.69 2.63.73-2.63h1l-1.31 4.06v2.16H18zM22.17 11.17a1.37 1.37 0 0 1-.91-.27 1.51 1.51 0 0 1-.47-.72 3.58 3.58 0 0 1-.17-1V7.99v-1.2a3.52 3.52 0 0 1 .17-1 1.53 1.53 0 0 1 .47-.79 1.62 1.62 0 0 1 1.82 0 1.53 1.53 0 0 1 .47.71 3.89 3.89 0 0 1 .17 1V9.1a4 4 0 0 1-.17 1 1.51 1.51 0 0 1-.47.72 1.37 1.37 0 0 1-.91.35zm0-.93a.41.41 0 0 0 .32-.13 1 1 0 0 0 .19-.41 4 4 0 0 0 .08-.7V8 7a4 4 0 0 0-.08-.71 1 1 0 0 0-.19-.41.42.42 0 0 0-.32-.14.4.4 0 0 0-.32.14.79.79 0 0 0-.19.41 4 4 0 0 0-.08.71v2a4 4 0 0 0 .08.71.83.83 0 0 0 .19.41.39.39 0 0 0 .32.12zM24.51 11.07V4.85h1.29L27 9.16V4.85h.9v6.22h-1.23l-1.25-4.55v4.55zM28.73 11.07V4.85h2.5v1h-1.54v1.49h1.42v.95h-1.42v1.82h1.59v1zM33.21 6a3.55 3.55 0 0 0 .47-.4 2.42 2.42 0 0 0 .39-.53h.85v6H34V6.44a3.06 3.06 0 0 1-.36.36c-.13.11-.26.22-.39.31zM37.12 5a1.29 1.29 0 0 1 .66.15 1 1 0 0 1 .39.52 3.56 3.56 0 0 1 .18.95V9.34a4.17 4.17 0 0 1-.16 1 1.41 1.41 0 0 1-.39.63 1.22 1.22 0 0 1-1.4 0 1.32 1.32 0 0 1-.4-.67 4.13 4.13 0 0 1-.17-1V8.02 6.58a3.56 3.56 0 0 1 .18-.95 1 1 0 0 1 .39-.52 1.29 1.29 0 0 1 .72-.11zm0 .88a.26.26 0 0 0-.22.08.66.66 0 0 0-.11.33 4.81 4.81 0 0 0 0 .66v2.22a3.94 3.94 0 0 0 0 .68.66.66 0 0 0 .11.33.29.29 0 0 0 .42 0 .76.76 0 0 0 .12-.33 5.31 5.31 0 0 0 0-.68V8.06 6.93a5.13 5.13 0 0 0 0-.66.76.76 0 0 0-.12-.33.27.27 0 0 0-.2-.08zM39.76 6.14h.71v1.7h1.07v1h-1.07v1.69h-.71V8.8h-1.08v-1h1.08zM24.75 49.2h-1.41v.8h1.41v1.37h.8V50H27v-.8h-1.45v-1.37h-.8zm-2.25-.34c0-2.73-1.47-4.35-3.9-4.35-3.29 0-4.1 2.24-4.1 4.35 0 2.57 1.29 4.34 4 4.34s4-1.77 4-4.34M8.73 31.51l19.9-5.93 2 6.28-10 3 .82 2.57 9.21-2.74 2 6.29-9.2 2.73.86 2.71 10.29-3.06 2 6.28-20.23 6-7.65-24.13m.76 15.89A6.62 6.62 0 0 0 12 46.21v6.58h1.87v-8.24H12a6.61 6.61 0 0 1-2.52 1.26v1.59"/><path d="M16.22 48.78c0-2.76 1.11-3.4 2.36-3.39 1.41 0 2.2 1 2.19 3.47 0 1.5-.41 3.35-2.21 3.34s-2.35-1.41-2.34-3.42M3.83 19.35v-6.2h1.43v.95h-.88v1.53h.81v.95h-.81v1.81h.91v1zM5.64 19.35v-6.2h.74l.69 4.29v-4.29h.51v6.2h-.71l-.71-4.54v4.54zM8 19.35v-6.2h1.39v.95h-.81v1.59h.77v1h-.77v2.71zM9.39 19.35l.72-6.2h.72l.71 6.2H11L10.82 18h-.75l-.14 1.38zm1-5L10.18 17h.52zM11.79 19.35v-6.2h.74l.69 4.29v-4.29h.51v6.2H13l-.71-4.54v4.54zM15.75 13.15v1h-.61v5.17h-.54v-5.14H14v-1zM17.62 17.65a4.84 4.84 0 0 1-.08 1 1.54 1.54 0 0 1-.22.54.51.51 0 0 1-.29.24.91.91 0 0 1-.32.06.58.58 0 0 1-.41-.16 1.2 1.2 0 0 1-.24-.45 3.53 3.53 0 0 1-.06-.68v-.77h.54v.42a3.09 3.09 0 0 0 0 .35.67.67 0 0 0 .09.24.21.21 0 0 0 .17.08c.1 0 .17-.06.21-.19a1.46 1.46 0 0 0 .07-.51 1.34 1.34 0 0 0-.08-.48 1.83 1.83 0 0 0-.21-.39 3.09 3.09 0 0 0-.26-.37 3.5 3.5 0 0 1-.26-.43 3.77 3.77 0 0 1-.21-.57 3.63 3.63 0 0 1-.08-.79v-.68a2.69 2.69 0 0 1 .14-.56 1 1 0 0 1 .27-.37.62.62 0 0 1 .41-.14.63.63 0 0 1 .59.45 3.51 3.51 0 0 1 .17 1.42h-.53v-.34a2.19 2.19 0 0 0 0-.3.63.63 0 0 0-.07-.22.17.17 0 0 0-.13-.08c-.09 0-.16.06-.21.17a1.21 1.21 0 0 0-.08.49 1.24 1.24 0 0 0 .09.5 1.72 1.72 0 0 0 .2.38l.26.35a1.82 1.82 0 0 1 .27.41 2.27 2.27 0 0 1 .2.56 3.25 3.25 0 0 1 .06.82zM19.25 17.37v.42a2.77 2.77 0 0 0 0 .42 1.3 1.3 0 0 0 .06.32c0 .09.08.13.14.13a.13.13 0 0 0 .11-.07.48.48 0 0 0 .06-.18 1.64 1.64 0 0 0 0-.25v-.27h.52A2.94 2.94 0 0 1 20 19a.84.84 0 0 1-.23.31.49.49 0 0 1-.31.11.51.51 0 0 1-.4-.17 1.19 1.19 0 0 1-.22-.48 3.48 3.48 0 0 1-.1-.73v-.93-.84a3.41 3.41 0 0 1 .09-.7 1.13 1.13 0 0 1 .23-.48.49.49 0 0 1 .4-.18.53.53 0 0 1 .41.19 1.32 1.32 0 0 1 .22.52 3.9 3.9 0 0 1 .1.77v1zm.47-.68v-.33-.34a1.09 1.09 0 0 0-.07-.25c0-.07-.08-.1-.14-.1a.16.16 0 0 0-.14.11 1.38 1.38 0 0 0-.07.26v.65zM20.39 15h.2v-.69l.51-.54V15h.26v.75h-.26v2.55a.79.79 0 0 0 0 .17.28.28 0 0 0 .05.11.13.13 0 0 0 .09 0v.75h-.26a.33.33 0 0 1-.26-.11.72.72 0 0 1-.15-.27 1.14 1.14 0 0 1-.07-.32v-2.87h-.2zM22.23 19.35l.72-6.2h.71l.71 6.2h-.57L23.65 18h-.74l-.15 1.38zm1-5L23 17h.52zM24.64 13.15h.91a.51.51 0 0 1 .43.2 1.52 1.52 0 0 1 .26.6 6 6 0 0 1 .12 1V17.48c0 .24 0 .46-.07.69a3 3 0 0 1-.14.6 1.25 1.25 0 0 1-.26.44.5.5 0 0 1-.38.17h-.89zm.54 5.24h.27a.26.26 0 0 0 .2-.11 1.06 1.06 0 0 0 .12-.38 5 5 0 0 0 .06-.66V15.42a6.39 6.39 0 0 0 0-.68 1.51 1.51 0 0 0-.12-.47q-.08-.18-.21-.18h-.29zM28.59 13.15v4.39a5.12 5.12 0 0 1 0 .69 2.59 2.59 0 0 1-.15.61 1.27 1.27 0 0 1-.27.44.57.57 0 0 1-.42.17.72.72 0 0 1-.67-.52 3.7 3.7 0 0 1-.22-1.39v-4.39h.55v4.31a2.67 2.67 0 0 0 .09.82q.09.24.24.24c.13 0 .21-.09.27-.27a3.19 3.19 0 0 0 .08-.79v-4.31zM29 19.35v-6.2h.55v5.17h.81v1zM32 13.15v1h-.61v5.17h-.55v-5.14h-.6v-1zM32.24 19.35v-6.2h1.42v.95h-.88v1.53h.81v.95h-.81v1.81h.91v1zM35.66 17.65a4.84 4.84 0 0 1-.08 1 1.54 1.54 0 0 1-.22.54.58.58 0 0 1-.29.24 1 1 0 0 1-.32.06.57.57 0 0 1-.41-.16 1.2 1.2 0 0 1-.24-.45 2.83 2.83 0 0 1-.1-.68v-.77h.54v.42a3.09 3.09 0 0 0 0 .35.67.67 0 0 0 .09.24.21.21 0 0 0 .17.08c.09 0 .17-.06.21-.19a1.74 1.74 0 0 0 .07-.51 1.34 1.34 0 0 0-.08-.48 1.83 1.83 0 0 0-.21-.39c-.08-.13-.17-.25-.26-.37a3.5 3.5 0 0 1-.26-.43 2.93 2.93 0 0 1-.21-.57 3.63 3.63 0 0 1-.08-.79 4.79 4.79 0 0 1 0-.68 2.69 2.69 0 0 1 .14-.56.92.92 0 0 1 .26-.37.66.66 0 0 1 .42-.14.63.63 0 0 1 .59.45 3.7 3.7 0 0 1 .17 1.42h-.46v-.34a2.19 2.19 0 0 0 0-.3 1 1 0 0 0-.07-.22.17.17 0 0 0-.14-.08c-.09 0-.15.06-.2.17a1.21 1.21 0 0 0-.08.49 1.46 1.46 0 0 0 .08.5 2.32 2.32 0 0 0 .21.38l.26.35a2.23 2.23 0 0 1 .26.41 2.26 2.26 0 0 1 .21.56 3.79 3.79 0 0 1 .03.82zM36.8 14.28a3.21 3.21 0 0 0 .26-.41 2.53 2.53 0 0 0 .23-.52h.48v6h-.54v-4.62a2.87 2.87 0 0 1-.21.36 2.44 2.44 0 0 1-.22.31zM39 13.27a.49.49 0 0 1 .37.16 1.1 1.1 0 0 1 .23.51 6.6 6.6 0 0 1 .1 1V17.66a6.3 6.3 0 0 1-.09 1 1.91 1.91 0 0 1-.22.63.46.46 0 0 1-.4.21.45.45 0 0 1-.4-.21 1.71 1.71 0 0 1-.22-.63 6.3 6.3 0 0 1-.09-1v-1.28-1.44a5.42 5.42 0 0 1 .1-1 1.11 1.11 0 0 1 .22-.51.51.51 0 0 1 .4-.16zm0 .88a.14.14 0 0 0-.13.09.84.84 0 0 0-.06.32V18.13a1.19 1.19 0 0 0 .07.33.13.13 0 0 0 .24 0 1.3 1.3 0 0 0 .06-.33 5.82 5.82 0 0 0 0-.67v-2.24-.66a1 1 0 0 0-.07-.32.14.14 0 0 0-.11-.09zM40.53 14.44h.4v1.69h.61v.95h-.61v1.69h-.4v-1.69h-.61v-.95h.61z"/></g></g></svg>