<?xml version="1.0" encoding="UTF-8"?><svg id="a" xmlns="http://www.w3.org/2000/svg" viewBox="0 0 45.35 68.03"><defs><style>.b{fill:#151011;}.c{fill:#fff;}.d{fill:#085ea9;}.e{fill:#231f20;}</style></defs><path class="c" d="M45.35,0H0V68.03H45.35V0Z"/><polyline class="e" points="44.69 .73 44.69 67.3 .64 67.3 .64 .73 44.69 .73"/><rect class="c" x="3.04" y="3.22" width="39.28" height="10.15"/><rect class="c" x="3.11" y="15.88" width="39.21" height="39.59"/><path class="e" d="M5.34,5.17c.87,0,1.24,.26,1.24,1.13v1.32c0,.83-.35,1.14-1.19,1.14h-.2v2.7h-.68V5.17h.84Zm-.14,2.96h.12c.43,0,.51-.19,.51-.75v-.84c0-.56-.09-.74-.51-.74h-.12v2.33Z"/><path class="e" d="M7.92,5.17c.84,0,1.19,.24,1.19,1.04v1.01c0,.63-.21,.91-.8,.98,.63,.05,.82,.34,.82,1.05v2.2h-.75v-2.2c0-.56-.07-.71-.58-.71h-.15v2.91h-.72V5.17h.99Zm-.27,2.73h.15c.47,0,.57-.16,.57-.71v-.7c0-.55-.1-.71-.57-.71h-.15v2.12Z"/><path class="e" d="M10.47,5.17v6.28h-.75V5.17h.75Z"/><path class="e" d="M11.47,5.17l.53,5.29h.06l.49-5.29h.65l-.72,6.28h-.94l-.79-6.28h.72Z"/><path class="e" d="M15.05,5.17l.86,6.28h-.74l-.18-1.6h-.94l-.21,1.6h-.69l.92-6.28h.99Zm-.93,4.05h.8l-.35-3.37h-.03l-.41,3.37Z"/><path class="e" d="M18.3,6.89h-.73v-.44c0-.5-.06-.76-.31-.76-.32,0-.36,.27-.36,.88v3.44c0,.6,.03,.88,.35,.88s.32-.22,.32-.72v-.56h.74v.58c0,.98-.24,1.36-1.08,1.36s-1.07-.51-1.07-1.69v-3.12c0-1.19,.22-1.68,1.09-1.68s1.05,.37,1.05,1.35v.47Z"/><path class="e" d="M19.05,5.17l.51,2.78h.04l.47-2.78h.69l-.88,3.66v2.62h-.73v-2.62l-.85-3.66h.75Z"/><path class="e" d="M24.23,6.89h-.73v-.44c0-.5-.06-.76-.31-.76-.33,0-.36,.27-.36,.88v3.44c0,.6,.03,.88,.35,.88,.25,0,.32-.22,.32-.72v-.56h.74v.58c0,.98-.24,1.36-1.08,1.36s-1.07-.51-1.07-1.69v-3.12c0-1.19,.22-1.68,1.09-1.68s1.05,.37,1.05,1.35v.47Z"/><path class="e" d="M26.35,5.17v.66h-.97v1.98h.91v.67h-.91v2.28h1.01v.67h-1.75V5.17h1.71Z"/><path class="e" d="M27.83,5.17c.83,0,1.19,.24,1.19,1.04v1.01c0,.63-.21,.91-.8,.98,.63,.05,.8,.34,.8,1.05v2.2h-.73v-2.2c0-.56-.07-.71-.58-.71h-.16v2.91h-.7V5.17h.99Zm-.28,2.73h.15c.47,0,.57-.16,.57-.71v-.7c0-.55-.1-.71-.57-.71h-.15v2.12Z"/><path class="e" d="M31.39,5.17v.66h-.68v5.62h-.74V5.83h-.68v-.66h2.11Z"/><path class="e" d="M32.42,5.17v6.28h-.75V5.17h.75Z"/><path class="e" d="M34.73,5.17v.66h-.96v2.05h.91v.67h-.91v2.9h-.73V5.17h1.69Z"/><path class="e" d="M35.85,5.17v6.28h-.74V5.17h.74Z"/><path class="e" d="M38.15,5.17v.66h-.96v1.98h.91v.67h-.91v2.28h1.01v.67h-1.75V5.17h1.69Z"/><path class="e" d="M39.43,5.17c1.19,0,1.44,.36,1.44,1.76v2.79c0,1.38-.25,1.76-1.44,1.76h-.77V5.17h.77Zm-.04,5.63h.15c.49,0,.59-.15,.59-.69v-3.62c0-.54-.11-.69-.59-.69h-.15v5Z"/><polygon class="c" points="3.15 64.12 3.15 58.16 11.05 58.16 11.05 59.56 6.33 59.56 6.33 60.41 10.32 60.41 10.32 61.8 6.33 61.8 6.33 62.73 11.23 62.73 11.23 64.12 3.15 64.12"/><path class="c" d="M17.95,59.9c-.08-.21-.25-.36-.46-.4-.27-.08-.54-.12-.82-.11-.7,0-1.01,.12-1.01,.34,0,.88,5.57,.33,5.57,2.49,0,1.38-1.87,2.05-4.53,2.05s-4.22-.92-4.29-2h3.04c.1,.24,.29,.42,.53,.47,.29,.1,.6,.15,.9,.15,.8,0,1.32-.15,1.32-.44,0-.88-5.57-.28-5.57-2.55,0-1.27,1.78-1.9,4.2-1.9,2.69,0,3.91,.85,4.15,1.88h-3.02Z"/><path class="c" d="M25.98,60.74h1.25c.98,0,1.51-.15,1.51-.56s-.54-.62-1.28-.62h-1.48v1.19Zm0,1.32v2.08h-3.18v-5.98h4.57c3.22,0,4.28,.55,4.28,1.7,0,.69-.49,1.26-1.62,1.46,1.02,.23,1.64,.37,1.64,1.57,0,.78-.04,1.04,.33,1.04v.19h-3.21c-.12-.33-.18-.69-.16-1.04,0-.78-.21-1.03-1.69-1.03l-.97,.02Z"/><path class="c" d="M36.79,59.56v1h1.32c.63,0,1.09-.18,1.09-.52,0-.47-.63-.48-1.29-.48h-1.12Zm0,2.08v1.09h1.38c.8,0,1.38-.1,1.38-.54,0-.52-.74-.55-1.75-.55h-1.01Zm-3.18,2.49v-5.96h4.63c2.18,0,3.91,.32,3.91,1.5,0,.61-.65,1.06-1.27,1.29,1.05,.17,1.59,.72,1.59,1.36,0,1.32-1.65,1.8-4.17,1.8h-4.7Z"/><path class="c" d="M7.53,29.04c-.82,.48-1.31,1.45-1.26,2.48,.06,1.19,.7,1.88,1.63,2.38-.53,.95-.76,1.91-.29,2.93,.47,1.02,1.33,1.41,2.33,1.41v.77c-.05,1.39,.92,2.56,2.17,2.61,.29,.01,.58-.04,.86-.15,.43-.16,.56-.04,.7,.4,.4,1.32,1.69,2.04,2.88,1.6,.32-.12,.61-.31,.85-.57,.12-.13,.25-.24,.4-.38,.64,.91,1.41,1.37,2.44,1.19,1.03-.19,1.57-1.03,1.94-2.05,.93,.53,1.81,.63,2.68,0s1.06-1.61,1-2.72c1.01,0,1.88-.22,2.43-1.2s.4-1.98-.07-2.99c.96-.41,1.63-1.04,1.79-2.2s-.34-1.99-1.13-2.64c.04-.08,.08-.15,.13-.22,.96-.96,1.03-2.6,.17-3.67-.32-.4-.75-.67-1.22-.79-.32-.07-.27-.26-.24-.55,.11-.49,.13-1,.08-1.5-.25-1.32-1.19-2-2.55-1.9-.37,.03-.52-.04-.56-.51-.07-1.32-1.1-2.33-2.29-2.25h-.04c-.56,.11-1.11,.28-1.64,.5-.4-.86-1.03-1.56-2.09-1.6s-1.76,.58-2.3,1.57c-.8-.74-1.65-1.05-2.61-.63s-1.37,1.32-1.5,2.46l-.33-.07c-2.07-.48-3.34,1.47-2.83,3.24,.09,.32-.04,.41-.32,.48-1.38,.37-2.11,1.52-1.85,3,.16,.55,.37,1.08,.62,1.58Z"/><path class="c" d="M31.18,31.96c-.02,.05-.04,.11-.05,.17,0,1.17-.49,2.28-1.31,3.01-.12,.17-.16,.39-.13,.61,.27,1.86-.75,3.65-2.39,4.18-.15,.07-.29,.16-.42,.26,.12,.16,.25,.29,.4,.41,2.49,1.49,4.99,2.97,7.5,4.45,.13,.07,.27,.14,.4,.2v-5.03c.02-.24,.13-.47,.3-.62,.55-.44,1.14-.84,1.71-1.25l2.14-1.55-8.16-4.84Z"/><path class="c" d="M21.75,54.25c.14-.19,.24-.31,.34-.44,.84-1.17,1.68-2.35,2.54-3.53,.12-.17,.3-.27,.5-.29,.58,.04,1.17,.14,1.75,.21l2.92,.36-3.36-9.04c-1.08,1.41-1.83,1.76-3.43,1.68-.2,.02-.4,.12-.53,.29-.64,.91-1.63,1.42-2.67,1.38-.56-.07-1.12-.18-1.67-.34,1.2,3.23,2.39,6.44,3.6,9.72Z"/><path class="c" d="M39.24,50.46c-.99-.02-1.8,.85-1.81,1.95,0,.02,0,.04,0,.07,.01,1.1,.82,1.98,1.81,1.98,.99,.01,1.79-.87,1.8-1.96,0-.02,0-.04,0-.07,0-1.08-.77-1.96-1.74-1.97-.02,0-.04,0-.06,0Z"/><path class="d" d="M7.53,29.04c-.26-.5-.47-1.03-.63-1.58-.26-1.48,.47-2.64,1.85-3,.28-.07,.4-.17,.32-.48-.51-1.76,.76-3.71,2.83-3.24l.33,.07c.13-1.12,.52-2.03,1.5-2.46s1.81-.11,2.61,.63c.54-1,1.23-1.62,2.3-1.57s1.67,.74,2.09,1.6c.53-.23,1.08-.39,1.65-.5,1.19-.11,2.24,.87,2.34,2.19v.05c.04,.47,.19,.53,.56,.51,1.34-.1,2.3,.59,2.55,1.9,.06,.5,.03,1.01-.08,1.5-.04,.29-.08,.47,.24,.55,1.26,.32,2.05,1.71,1.76,3.11-.11,.52-.36,.99-.71,1.35-.05,.07-.09,.14-.13,.22,.8,.67,1.29,1.5,1.13,2.64s-.83,1.76-1.79,2.2c.47,1.01,.64,2,.07,2.99s-1.42,1.22-2.43,1.2c.06,1.11-.13,2.08-1,2.72s-1.75,.54-2.68,0c-.37,1.02-.89,1.86-1.94,2.05s-1.8-.27-2.44-1.19c-.15,.14-.28,.25-.4,.38-.91,.97-2.35,.93-3.22-.08-.23-.27-.41-.59-.52-.95-.14-.44-.27-.56-.7-.4-1.18,.47-2.48-.21-2.9-1.51-.1-.31-.14-.63-.13-.95v-.77c-1,0-1.85-.37-2.33-1.41s-.24-1.98,.29-2.93c-.93-.5-1.59-1.19-1.63-2.38-.05-1.02,.43-1.98,1.25-2.47Zm10.74,12.62c5.51,.01,9.98-4.92,9.99-11.02,.01-6.1-4.44-11.06-9.95-11.07-5.48-.01-9.95,4.88-9.99,10.95-.03,6.12,4.42,11.1,9.94,11.14h0Z"/><path class="d" d="M31.18,31.96l8.16,4.85-2.14,1.55c-.57,.41-1.16,.8-1.71,1.25-.17,.15-.28,.38-.3,.62-.02,1.66,0,3.31,0,5.03-.13-.07-.27-.13-.4-.2-2.5-1.47-5-2.95-7.5-4.45-.15-.12-.28-.25-.4-.41,.13-.1,.27-.19,.42-.26,1.63-.53,2.66-2.32,2.39-4.18-.04-.21,0-.44,.12-.61,.82-.73,1.31-1.83,1.31-3,0-.06,.03-.13,.05-.19Z"/><path class="d" d="M21.75,54.25c-1.22-3.28-2.41-6.48-3.6-9.7,.55,.16,1.11,.27,1.67,.34,1.04,.05,2.03-.47,2.67-1.38,.14-.17,.33-.27,.53-.29,1.59,.08,2.35-.26,3.43-1.68l3.36,9.02-2.92-.36c-.58-.07-1.17-.18-1.75-.21-.19,.02-.37,.12-.5,.29-.86,1.16-1.7,2.34-2.54,3.53-.12,.13-.2,.25-.34,.44Z"/><path class="c" d="M18.27,41.66c-5.51-.04-9.94-5.01-9.91-11.11,.03-6.1,4.52-11.02,10.03-10.98,5.49,.04,9.92,4.99,9.91,11.07-.02,6.11-4.5,11.04-10.01,11.02h-.02Zm-4.77-11.4l.26-2.93c-1.07-.38-2.01-1.1-2.73-2.05-.83,1.15-1.54,3.65-1.43,4.99h3.9Zm-3.95,.81c.07,1.79,.57,3.53,1.46,5.03,.72-1.09,1.73-1.65,2.75-2.11l-.27-2.92h-3.94Zm16.09-5.81c-.67,.9-1.54,1.59-2.53,1.99-.13,.1-.21,.27-.2,.44,.04,.72,.14,1.44,.16,2.16,0,.37,.12,.49,.45,.48h2.29q1.34-.03,1.13-1.49c-.2-1.28-.64-2.5-1.3-3.58Zm0,10.84c.85-1.41,1.33-3.05,1.39-4.74,0-.1-.24-.3-.37-.3-1.06-.03-2.13,0-3.18,0-.29,0-.4,.11-.4,.44-.04,.74-.13,1.47-.17,2.2,0,.18,.07,.34,.21,.44,.99,.39,1.86,1.06,2.53,1.95h0Zm-4.43-12.4c-.93,.21-1.71,.37-2.48,.56-.1,.03-.26,.17-.26,.27v2.94l3.79-.57-1.05-3.2Zm1,10.89c-1.21-.4-2.47-.6-3.74-.58v2.97l2.71,.73,1.03-3.12Zm-4.38-10.25l-2.39-.71-1.03,3.24,3.42,.57v-3.1Zm0,12.69v-3.09l-3.42,.56,1.07,3.23,2.35-.71Zm.64-6.71h3.76c.13-.05,.23-.18,.25-.33-.03-.7-.1-1.41-.18-2.1-.05-.13-.16-.21-.29-.22-1.17,.19-2.34,.41-3.55,.63v2.02Zm0,2.77c1.19,.22,2.33,.41,3.45,.63,.27,.05,.4,0,.4-.32,.04-.6,.1-1.19,.16-1.76,.04-.4-.06-.57-.46-.56-1.05,.03-2.1,0-3.15,0-.13,0-.27,.02-.4,.05v1.97Zm-4.15-5.44l-.22,2.64h3.7v-2.05l-3.48-.59Zm0,6.08l3.5-.59v-2.03h-3.72l.22,2.62Zm8.44-7.17c.9-.27,1.7-.85,2.29-1.64,.07-.17,.07-.36-.02-.52-.68-.68-1.35-1.38-2.05-2.03-.12-.07-.27-.07-.4,0-.32,.28-.62,.6-.9,.88l1.07,3.31Zm-1.08,11.59c.28,.27,.56,.58,.87,.85,.12,.08,.27,.09,.4,.03,.71-.67,1.41-1.35,2.1-2.05,.08-.13,.11-.29,.06-.44-.59-.83-1.41-1.44-2.34-1.72l-1.08,3.33Zm-7.8-11.56c.23-.78,.43-1.48,.66-2.17,.12-.38,.44-.78,.4-1.11s-.53-.53-.76-.83-.37-.3-.59-.08l-1.96,1.93c-.25,.25-.18,.48,0,.73,.63,.71,1.4,1.24,2.26,1.54Zm-.02,8.22c-.85,.28-1.61,.82-2.21,1.54-.1,.13-.19,.44-.13,.54,.64,.94,1.45,1.72,2.37,2.3l1.06-1.04-1.09-3.34Zm4.61,5.34c1.05-.1,1.66-.82,2.25-1.71-.7-.38-1.47-.55-2.25-.5v2.21Zm0-18.92v2.35l2.31-.56c-.64-.97-1.26-1.66-2.29-1.79h-.02Zm-.67,.06c-.85,.27-1.38,.88-1.93,1.71l1.93,.55v-2.26Zm-1.94,17.1c.56,.85,1.1,1.46,1.93,1.71v-2.25l-1.93,.54Zm-1.45-16.59l.9,.79,1.19-1.48-.04-.09-2.06,.78Zm0,17.78l2.08,.78,.03-.08-1.19-1.49-.91,.79Zm6.91-.79l-1.22,1.5,.03,.08,2.09-.79-.9-.79Zm0-16.2l.89-.8-2.08-.78v.1l1.19,1.48Z"/><path class="d" d="M13.51,30.26h-3.9c-.12-1.32,.6-3.84,1.43-4.99,.72,.96,1.66,1.67,2.73,2.05l-.26,2.93Z"/><path class="d" d="M9.56,31.07h3.94l.27,2.92c-1.03,.44-2.03,1.01-2.75,2.11-.88-1.5-1.39-3.24-1.46-5.03Z"/><path class="d" d="M25.64,25.25c.66,1.08,1.1,2.3,1.3,3.58q.21,1.46-1.13,1.46h-2.29c-.33,0-.43-.11-.45-.48-.03-.72-.13-1.43-.16-2.16,0-.18,.07-.34,.2-.44,.99-.39,1.86-1.07,2.53-1.96Z"/><path class="d" d="M25.65,36.09c-.67-.91-1.54-1.6-2.53-2-.13-.1-.21-.26-.21-.44,.04-.74,.13-1.47,.17-2.2,0-.32,.11-.44,.4-.44h3.18c.13,0,.37,.2,.37,.3-.05,1.71-.53,3.36-1.38,4.79Z"/><path class="d" d="M21.21,23.68l1.03,3.2-3.79,.57v-2.94c0-.1,.16-.24,.26-.27,.78-.19,1.56-.36,2.49-.56Z"/><path class="d" d="M22.21,34.57l-1.03,3.12-2.71-.73v-2.97c1.26-.01,2.52,.18,3.74,.58Z"/><path class="d" d="M17.83,24.32v3.09l-3.41-.56,1.05-3.24,2.36,.71Z"/><path class="d" d="M17.82,37.01l-2.35,.71-1.05-3.23,3.41-.59v3.11Z"/><path class="d" d="M18.48,30.3v-2.03c1.19-.22,2.39-.44,3.55-.63,.12,0,.23,.09,.29,.22,.08,.7,.15,1.4,.18,2.1-.03,.15-.12,.27-.25,.33-1.24,.01-2.48,.01-3.76,.01Z"/><path class="d" d="M18.48,33.07v-1.98c.13-.02,.26-.04,.4-.05h3.15c.4,0,.51,.17,.46,.56-.06,.6-.12,1.19-.16,1.76-.02,.31-.14,.37-.4,.32-1.13-.21-2.25-.41-3.45-.62Z"/><path class="d" d="M14.34,27.62l3.48,.59v2.05h-3.7l.22-2.64Z"/><path class="d" d="M14.34,33.7l-.22-2.62h3.72v2.03l-3.5,.59Z"/><path class="d" d="M22.77,26.53l-1.08-3.32c.28-.28,.57-.6,.9-.88,.12-.07,.27-.07,.4,0,.7,.66,1.39,1.32,2.05,2.03,.09,.16,.1,.35,.02,.52-.59,.8-1.39,1.37-2.29,1.65Z"/><path class="d" d="M21.7,38.13l1.08-3.33c.92,.28,1.74,.88,2.34,1.71,.05,.15,.03,.31-.06,.44-.68,.7-1.38,1.39-2.1,2.05-.13,.06-.28,.05-.4-.03-.31-.26-.58-.57-.87-.85Z"/><path class="d" d="M13.89,26.56c-.86-.31-1.63-.84-2.26-1.56-.19-.25-.27-.48,0-.73l1.96-1.92c.23-.22,.4-.17,.59,.08s.68,.52,.74,.83-.25,.73-.4,1.11c-.2,.7-.4,1.4-.64,2.18Z"/><path class="d" d="M13.87,34.78l1.09,3.34-1.06,1.04c-.92-.58-1.73-1.36-2.37-2.3-.06-.09,.03-.41,.13-.54,.6-.72,1.36-1.25,2.21-1.54Z"/><path class="d" d="M18.48,40.12v-2.2c.78-.05,1.55,.12,2.25,.5-.59,.88-1.21,1.6-2.25,1.7Z"/><path class="d" d="M18.49,21.2c1.03,.14,1.65,.83,2.28,1.79l-2.28,.56v-2.35Z"/><path class="d" d="M17.82,21.26v2.26l-1.93-.55c.55-.83,1.09-1.44,1.93-1.71Z"/><path class="d" d="M15.88,38.36l1.93-.54v2.25c-.83-.26-1.37-.86-1.93-1.71Z"/><path class="d" d="M14.42,21.77l2.06-.78,.04,.09-1.19,1.48-.91-.79Z"/><path class="d" d="M14.42,39.55l.9-.79,1.19,1.49-.03,.08-2.06-.78Z"/><path class="d" d="M21.33,38.76l.9,.79-2.08,.79-.03-.08,1.22-1.5Z"/><path class="d" d="M21.33,22.57l-1.19-1.48v-.1l2.08,.78-.88,.8Z"/><path class="c" d="M38.83,52.28l.04-.74c.27,.08,.49,.15,.71,.24,.02,0,.02,.22,0,.23-.22,.1-.45,.17-.75,.27Z"/><path class="b" d="M39.2,52.19c.32,0,.4-.15,.4-.31s-.08-.26-.35-.26h-.4v.57h.35Zm-.36,.35v.96h-.34v-2.23h.7c.4,0,.8,.11,.8,.62,0,.27-.19,.5-.43,.52h0c.29,.06,.33,.2,.37,.44,.02,.22,.06,.43,.13,.64h-.43c-.02-.12-.06-.27-.07-.4-.02-.19-.02-.37-.12-.48-.09-.07-.21-.1-.32-.08h-.28m1.91-.13c.06-.93-.58-1.73-1.41-1.79s-1.56,.64-1.62,1.57c-.06,.93,.58,1.73,1.41,1.79,.04,0,.07,0,.11,0,.81,.03,1.48-.67,1.51-1.56h0m-3.36-.01c-.07-1.13,.69-2.11,1.71-2.19s1.91,.77,1.98,1.89c.07,1.13-.69,2.11-1.71,2.19-.04,0-.09,0-.13,0-.98,.04-1.81-.8-1.85-1.89h0"/></svg>