<svg id="Calque_1" data-name="Calque 1" xmlns="http://www.w3.org/2000/svg" viewBox="0 0 453 111"><defs><style>.cls-1{fill:#ec1f27;}.cls-2{fill:#fefafa;}.cls-3{fill:#fefbfb;}.cls-4{fill:#eb0916;}.cls-5{fill:#ec1d25;}.cls-6{fill:#ec2129;}.cls-7{fill:#ec1e26;}.cls-8{fill:#ec2028;}.cls-9{fill:#ec1f26;}.cls-10{fill:#ec2027;}.cls-11{fill:#ed252c;}.cls-12{fill:#eb0002;}.cls-13{fill:#fce7e7;}.cls-14{fill:#eb0009;}.cls-15{fill:#ec191d;}.cls-16{fill:#eb0205;}.cls-17{fill:#eb0005;}.cls-18{fill:#ef3c43;}.cls-19{fill:#eb0010;}.cls-20{fill:#ed1f21;}.cls-21{fill:#ec0811;}.cls-22{fill:#fdf8f8;}.cls-23{fill:#fdf4f4;}</style></defs><path class="cls-1" d="M453,47V64a9.82,9.82,0,0,0-1,2c-5,22.35-18.82,36.37-40.66,42.68-3.09.9-6.24,1.55-9.36,2.31H50a13.76,13.76,0,0,0-2.53-1C23.3,105.91,6.3,89.82,1,66a9.82,9.82,0,0,0-1-2V47a15.33,15.33,0,0,0,1.05-2.49Q8.45,13.33,38.79,3.09C42.15,2,45.59,1,49,0H403a17.39,17.39,0,0,0,2,1c6.82,2.36,14.16,3.76,20.34,7.24,9.51,5.37,17.59,12.78,21.89,23.32C449.31,36.62,451.08,41.84,453,47ZM394.9,13.33c-1.48.09-3,.28-4.46.28H62.56c-1.48,0-3-.19-4.46-.28l-1.22.05c-1.47.21-2.93.5-4.41.62A42.08,42.08,0,0,0,15.73,43.14c-4.72,14.8-.49,39.5,19.9,48.68C42,94.69,49.21,95.75,56,97.64l.92.06c1.65-.11,3.31-.31,5-.31q164.58,0,329.17,0c1.65,0,3.3.2,5,.31l.92-.06c3.56-.62,7.17-1,10.66-1.89,17.76-4.45,30.47-19.48,31.32-36.84,1-20-9-35.81-27.34-42.23-4.93-1.73-10.3-2.23-15.47-3.3Z"/><path class="cls-2" d="M453,47c-1.92-5.16-3.69-10.38-5.78-15.47-4.3-10.54-12.38-18-21.89-23.32C419.15,4.73,411.81,3.33,405,1a17.39,17.39,0,0,1-2-1h50Z"/><path class="cls-3" d="M49,0c-3.41,1-6.85,2-10.21,3.09Q8.49,13.36,1.05,44.51A15.33,15.33,0,0,1,0,47V0Z"/><path class="cls-3" d="M402,111c3.12-.76,6.27-1.41,9.36-2.31C433.2,102.38,447,88.36,452,66a9.82,9.82,0,0,1,1-2v47Z"/><path class="cls-3" d="M0,64a9.82,9.82,0,0,1,1,2c5.32,23.81,22.32,39.9,46.49,44A13.76,13.76,0,0,1,50,111H0Z"/><path class="cls-3" d="M58.1,13.33c1.49.09,3,.28,4.46.28H390.44c1.49,0,3-.19,4.46-.28l1.23.05c5.17,1.07,10.54,1.57,15.47,3.3,18.3,6.42,28.33,22.2,27.34,42.23-.85,17.36-13.56,32.39-31.32,36.84-3.49.88-7.1,1.27-10.66,1.89a.7.7,0,0,0-.92.06c-1.65-.11-3.3-.31-5-.31q-164.59,0-329.17,0c-1.65,0-3.31.2-5,.31a.7.7,0,0,0-.92-.06c-6.83-1.89-14-3-20.41-5.82C15.24,82.64,11,57.94,15.73,43.14A42.08,42.08,0,0,1,52.47,14c1.48-.12,2.94-.41,4.41-.62ZM417,44.24l2.41-1.13c-.19-.37-.39-.74-.59-1.1L416,44.07c.22.33.44.65.65,1ZM414,38.62l2,1.88c-.33-1.07-.67-2.13-1-3.2l1.83-5.77c-1.94-.56-3.86-1.15-5.81-1.64a8,8,0,0,0-2,0l7.09-3.31c-3.43-2.91-5.95-1.62-8.38.6C403,28.13,400.82,34,403,40l6.56,6.92c.18-2.91.26-4,.33-5.17.22-1.65.43-3.31.76-5.8ZM110,81l14.88-1V48l-14.83-.84c-.29,5.13-.82,10.26-.81,15.38C109.26,68.69,109.73,74.84,110,81Zm93-46H190c-.38,2-.76,4-1.15,6.07l-9.58,3c1.33,1.07,2.3,2.39,3.52,2.69,1.87.47,3.91.23,5.88.3v34h15.5V47h8.38V41.92h-8.17Zm53.82,26.07c-2.07-7.55-6.88-12.78-14.3-14.85-3.91-1.09-8.27-.63-12.42-.7-7.94-.14-13.33,4.34-17.08,10.61-3.66,6.1-2.93,12.49,1.28,18.22C224,87.58,246.69,86.24,255,72c-.33-.9-.62-2.57-1-2.58-4.24-.18-8.49-.12-12.62-.12-.73,2.75-1.36,5.1-2,7.46-2.69.63-5.8,2.39-7.93,1.57-1.91-.73-3.16-4.16-3.92-6.63-.71-2.27-.37-4.85-.5-7.29,8.87-.1,17.74-.23,26.61-.26C255.89,64.14,257.82,64.17,256.82,61.06Zm-107.38-4c2.2-3.52,5.11-5.74,9.48-4.49s5.37,4.72,5.24,9C164,68,164.1,74.42,164.1,81h15.75c0-5.7,0-11,0-16.29,0-11.49-3.95-17-15.14-18.83-4.1-.65-8.67,1.86-13.06,2.78-.79.16-1.74-.4-2.61-.63l-14.86-1.56V81.9L149,80q0-11,.05-22Zm157.73,23c-.08-8.13,0-16.26-.36-24.38-.07-1.53-1.69-3.14-2.9-4.43-6.2-6.66-16.23-8.23-25.16-2-5-6-11.35,1.49-16.29-2.09V81h15.36c0-6.69.17-13-.06-19.29-.17-4.49.92-8,5.65-9.18s7.46,1.5,9.4,5.39V82Zm-207.38-50-16-1.15V65.54C76.7,54.05,70.4,43.83,64,33.67c-1-1.6-2.41-4.08-3.74-4.15-5-.27-10,.29-15,.54v51H61V46a37.58,37.58,0,0,1,3,3.67q10.05,15.53,20,31.12H99.79ZM342.23,48.21c-1.4-.56-2.15-.84-2.88-1.16-8.13-3.58-16.53-1.26-22.16,5.8a18.76,18.76,0,0,0-.5,21.82c4.95,7,13.52,9.44,22.21,6.46a8.32,8.32,0,0,1,3.15-.64c5.17.34,10.33.82,15.46,1.25V29.62H342.23Zm41,35c11.26.28,18.43-3.05,23.23-10.36,3.51-5.35,4-11.56.41-16.94-4-5.93-8.95-11.15-17.3-10.27a56.22,56.22,0,0,1-7.57.2c-13-.45-22.3,12.69-17.34,24.55C368.6,79.78,376.46,82.62,383.22,83.18ZM109.3,39.6h15.41v-10H109.3ZM420,29.39V41.9C424,38.62,424.13,33.85,420,29.39Z"/><path class="cls-4" d="M56,97.64a.7.7,0,0,1,.92.06Z"/><path class="cls-4" d="M396,97.7a.7.7,0,0,1,.92-.06Z"/><path class="cls-4" d="M58.1,13.33l-1.22.05Z"/><path class="cls-4" d="M396.13,13.38l-1.23-.05Z"/><path class="cls-5" d="M45.24,30.06c5-.25,10-.81,15-.54,1.33.07,2.73,2.55,3.74,4.15,6.4,10.16,12.7,20.38,19.83,31.87V28.92l16,1.15A45,45,0,0,0,99,35.9c-.07,13.17-.11,26.33,0,39.5,0,3.45-1.17,4.75-4.65,4.68s-6.89.45-10.33.71q-10-15.57-20-31.12A37.58,37.58,0,0,0,61,46a29.29,29.29,0,0,0-1,5.24c-.11,7.83-.24,15.67,0,23.49.15,4.23-1.44,5.79-5.49,5.31a14.64,14.64,0,0,0-3.5,0c-4,.47-5.2-1.26-5.14-5.15.18-13,.1-26,0-39A46.59,46.59,0,0,0,45.24,30.06Z"/><path class="cls-6" d="M342.23,48.21V29.62h15.28V81.74c-5.13-.43-10.29-.91-15.46-1.25a8.32,8.32,0,0,0-3.15.64c-8.69,3-17.26.51-22.21-6.46a18.76,18.76,0,0,1,.5-21.82c5.63-7.06,14-9.38,22.16-5.8C340.08,47.37,340.83,47.65,342.23,48.21ZM330.06,63.44c0,2.66-.21,5.33.05,8,.33,3.41,2.4,5.46,5.88,5.5s5.89-1.68,6.09-5.2a149.06,149.06,0,0,0,0-15.39c-.18-3.52-2.59-5.29-6-5.24a5.56,5.56,0,0,0-5.95,5.43A64.41,64.41,0,0,0,330.06,63.44Z"/><path class="cls-1" d="M292.81,57.92c-1.94-3.89-4.65-6.6-9.4-5.39s-5.82,4.69-5.65,9.18c.23,6.29.06,12.6.06,19.29H262.46V47.2c4.94,3.58,11.31-3.89,16.29,2.09,8.93-6.28,19-4.71,25.16,2,1.21,1.29,2.83,2.9,2.9,4.43.36,8.12.28,16.25.36,24.38-1.66,0-3.32,0-5,0-8.18,0-8,0-8.24-8C293.84,67.32,293.21,62.62,292.81,57.92Z"/><path class="cls-7" d="M149,48c.87.23,1.82.79,2.61.63,4.39-.92,9-3.43,13.06-2.78,11.19,1.79,15.1,7.34,15.14,18.83,0,5.29,0,10.59,0,16.29H164.1c0-6.56-.14-13,.06-19.43.13-4.24-.75-7.68-5.24-9s-7.28,1-9.48,4.49l-.35,1q0,11-.05,22c-3.48,0-7,.33-10.41-.16-1.34-.19-3.39-2.18-3.44-3.41q-.45-12.4,0-24.83c.05-1.23,2.1-3.2,3.44-3.4C142,47.7,145.56,48,149,48Z"/><path class="cls-8" d="M383.22,83.18c-6.76-.56-14.62-3.4-18.57-12.82-5-11.86,4.3-25,17.34-24.55a56.22,56.22,0,0,0,7.57-.2c8.35-.88,13.31,4.34,17.3,10.27,3.63,5.38,3.1,11.59-.41,16.94C401.65,80.13,394.48,83.46,383.22,83.18Zm9.38-19.25c-.15-3.15-.16-6.33-.5-9.46-.37-3.41-2.39-5.48-5.89-5.63s-6.11,1.63-6.3,5.06A114.39,114.39,0,0,0,380,73.75c.25,2.12,4,5.43,5.95,5.3,2.16-.14,4.92-3.28,5.9-5.72C393,70.55,392.44,67.1,392.6,63.93Z"/><path class="cls-9" d="M255,72c-8.33,14.24-31,15.58-40.72,2.34-4.21-5.73-4.94-12.12-1.28-18.22,3.75-6.27,9.14-10.75,17.08-10.61,4.15.07,8.51-.39,12.42.7,7.42,2.07,12.23,7.3,14.3,14.85-1.78.65-3.53,1.78-5.33,1.84-6.46.23-12.93,0-19.39.15-1.69.05-3.35.88-5,1.36.13,2.44-.21,5,.5,7.29.76,2.47,2,5.9,3.92,6.63,2.13.82,5.24-.94,7.93-1.57C244.31,70.28,247.5,69.31,255,72ZM227.38,60c4,0,7.13.15,10.25-.08a4.2,4.2,0,0,0,3.05-1.76c1.36-2.76-1.39-8-4.46-9a6.31,6.31,0,0,0-8.17,4.44A45.75,45.75,0,0,0,227.38,60Z"/><path class="cls-5" d="M188.67,47.08c-2-.07-4,.17-5.88-.3-1.22-.3-2.19-1.62-3.52-2.69l9.58-3c.39-2,.77-4,1.15-6.07h13l1.38,6.93h8.17V47h-8.38A25.7,25.7,0,0,0,203,52.18c-.12,7.8-.14,15.61,0,23.41.06,3.15-1,4.71-4.3,4.43a20.36,20.36,0,0,0-4,0c-3.79.4-4.89-1.39-4.8-5,.19-7.63.13-15.27,0-22.91C189.9,50.45,189.11,48.77,188.67,47.08Z"/><path class="cls-10" d="M124.88,48V80L110,81c-.27-6.15-.74-12.3-.76-18.46,0-5.12.52-10.25.81-15.38Z"/><path class="cls-11" d="M109.3,39.6v-10h15.41v10Z"/><path class="cls-12" d="M45.24,30.06A46.59,46.59,0,0,1,46,35.9c.07,13,.15,26,0,39-.06,3.89,1.18,5.62,5.14,5.15a14.64,14.64,0,0,1,3.5,0c4.05.48,5.64-1.08,5.49-5.31-.27-7.82-.14-15.66,0-23.49A29.29,29.29,0,0,1,61,46V81.08H45.24Z"/><path class="cls-13" d="M407.69,27.17c2.43-2.22,4.95-3.51,8.38-.6L409,29.88q.45,5.94.91,11.86c-.07,1.13-.15,2.26-.33,5.17L403,40Z"/><path class="cls-14" d="M188.67,47.08c.44,1.69,1.23,3.37,1.26,5.07.14,7.64.2,15.28,0,22.91-.09,3.58,1,5.37,4.8,5a20.36,20.36,0,0,1,4,0c3.29.28,4.36-1.28,4.3-4.43-.12-7.8-.1-15.61,0-23.41A25.7,25.7,0,0,1,204.17,47v34h-15.5Z"/><path class="cls-15" d="M409.89,41.74q-.47-5.93-.91-11.86a8,8,0,0,1,2,0c1.95.49,3.87,1.08,5.81,1.64l-1.83,5.77-1,1.32-3.3-2.68C410.32,38.43,410.11,40.09,409.89,41.74Z"/><path class="cls-16" d="M84.06,80.79c3.44-.26,6.89-.78,10.33-.71S99.07,78.85,99,75.4c-.13-13.17-.09-26.33,0-39.5a45,45,0,0,1,.77-5.83V80.79Z"/><path class="cls-17" d="M149,48c-3.48,0-7-.31-10.41.18-1.34.2-3.39,2.17-3.44,3.4q-.45,12.4,0,24.83c.05,1.23,2.1,3.22,3.44,3.41,3.4.49,6.93.16,10.41.16L134.18,81.9V46.45Z"/><path class="cls-18" d="M255,72c-7.52-2.69-10.71-1.72-15.59,4.76.62-2.36,1.25-4.71,2-7.46,4.13,0,8.38-.06,12.62.12C254.4,69.43,254.69,71.1,255,72Z"/><path class="cls-19" d="M292.81,57.92c.4,4.7,1,9.4,1.14,14.11.2,8,.06,8,8.24,8,1.66,0,3.32,0,5,0L292.81,82Z"/><path class="cls-12" d="M227.08,64.41c1.67-.48,3.33-1.31,5-1.36,6.46-.16,12.93.08,19.39-.15,1.8-.06,3.55-1.19,5.33-1.84,1,3.11-.93,3.08-3.13,3.09C244.82,64.18,236,64.31,227.08,64.41Z"/><path class="cls-7" d="M407.69,27.17,403,40C400.82,34,403,28.13,407.69,27.17Z"/><path class="cls-20" d="M420,29.39c4.18,4.46,4.05,9.23,0,12.51Z"/><path class="cls-21" d="M124.88,48l-14.83-.84Z"/><path class="cls-21" d="M110,81l14.88-1Z"/><path class="cls-13" d="M414,38.62l1-1.32c.33,1.07.67,2.13,1,3.2Z"/><path class="cls-14" d="M204.38,41.92,203,35Z"/><path class="cls-14" d="M190,35c-.38,2-.76,4-1.15,6.07C189.24,39.05,189.62,37,190,35Z"/><path class="cls-20" d="M416,44.07,418.85,42c.2.36.4.73.59,1.1L417,44.24Z"/><path class="cls-13" d="M416,44.07l1.06.17-.41.81C416.41,44.72,416.19,44.4,416,44.07Z"/><path class="cls-17" d="M149.09,58l.35-1Z"/><path class="cls-3" d="M330.06,63.44a64.41,64.41,0,0,1,0-6.95,5.56,5.56,0,0,1,5.95-5.43c3.45-.05,5.86,1.72,6,5.24a149.06,149.06,0,0,1,0,15.39c-.2,3.52-2.68,5.25-6.09,5.2s-5.55-2.09-5.88-5.5C329.85,68.77,330.06,66.1,330.06,63.44Z"/><path class="cls-22" d="M392.61,63.94c-.17,3.16.4,6.61-.72,9.39-1,2.44-3.74,5.58-5.9,5.72-1.95.13-5.7-3.18-5.95-5.3a114.39,114.39,0,0,1-.13-19.85c.19-3.43,2.83-5.21,6.3-5.06s5.52,2.22,5.89,5.63C392.44,57.6,392.45,60.78,392.61,63.94Z"/><path class="cls-23" d="M227.38,60a45.75,45.75,0,0,1,.67-6.35,6.31,6.31,0,0,1,8.17-4.44c3.07,1,5.82,6.19,4.46,9a4.2,4.2,0,0,1-3.05,1.76C234.51,60.13,231.35,60,227.38,60Z"/></svg>