<?xml version="1.0" encoding="utf-8"?>
<!-- Generator: Adobe Illustrator 26.1.0, SVG Export Plug-In . SVG Version: 6.00 Build 0)  -->
<svg version="1.1" id="Calque_1" xmlns="http://www.w3.org/2000/svg" xmlns:xlink="http://www.w3.org/1999/xlink" x="0px" y="0px"
	 viewBox="0 0 453 111" style="enable-background:new 0 0 453 111;" xml:space="preserve">
<style type="text/css">
	.st0{fill:#EC1F27;}
	.st1{fill:#FEFBFB;}
	.st2{fill:#EB0916;}
	.st3{fill:#EC1D25;}
	.st4{fill:#EC2129;}
	.st5{fill:#EC1E26;}
	.st6{fill:#EC2028;}
	.st7{fill:#EC1F26;}
	.st8{fill:#EC2027;}
	.st9{fill:#ED252C;}
	.st10{fill:#EB0002;}
	.st11{fill:#FCE7E7;}
	.st12{fill:#EB0009;}
	.st13{fill:#EC191D;}
	.st14{fill:#EB0205;}
	.st15{fill:#EB0005;}
	.st16{fill:#EF3C43;}
	.st17{fill:#EB0010;}
	.st18{fill:#ED1F21;}
	.st19{fill:#EC0811;}
	.st20{fill:#FDF8F8;}
	.st21{fill:#FDF4F4;}
</style>
<path class="st0" d="M453,47v17c-0.4,0.6-0.7,1.3-1,2c-5,22.3-18.8,36.4-40.7,42.7c-3.1,0.9-6.2,1.6-9.4,2.3H50
	c-0.8-0.4-1.7-0.8-2.5-1C23.3,105.9,6.3,89.8,1,66c-0.3-0.7-0.6-1.4-1-2V47c0.4-0.8,0.8-1.6,1-2.5C6,23.7,18.6,9.9,38.8,3.1
	C42.2,2,45.6,1,49,0h354c0.6,0.4,1.3,0.7,2,1c6.8,2.4,14.2,3.8,20.3,7.2c9.5,5.4,17.6,12.8,21.9,23.3C449.3,36.6,451.1,41.8,453,47z
	 M394.9,13.3c-1.5,0.1-3,0.3-4.5,0.3H62.6c-1.5,0-3-0.2-4.5-0.3l-1.2,0.1c-1.5,0.2-2.9,0.5-4.4,0.6c-17,1.4-31.5,12.9-36.7,29.1
	C11,57.9,15.2,82.6,35.6,91.8c6.4,2.9,13.6,3.9,20.4,5.8l0.9,0.1c1.7-0.1,3.3-0.3,5-0.3c109.7,0,219.4,0,329.2,0
	c1.6,0,3.3,0.2,5,0.3l0.9-0.1c3.6-0.6,7.2-1,10.7-1.9c17.8-4.4,30.5-19.5,31.3-36.8c1-20-9-35.8-27.3-42.2
	c-4.9-1.7-10.3-2.2-15.5-3.3L394.9,13.3z"/>
<path class="st1" d="M58.1,13.3c1.5,0.1,3,0.3,4.5,0.3h327.9c1.5,0,3-0.2,4.5-0.3l1.2,0.1c5.2,1.1,10.5,1.6,15.5,3.3
	c18.3,6.4,28.3,22.2,27.3,42.2c-0.9,17.4-13.6,32.4-31.3,36.8c-3.5,0.9-7.1,1.3-10.7,1.9c-0.3-0.2-0.7-0.2-0.9,0.1
	c-1.6-0.1-3.3-0.3-5-0.3c-109.7,0-219.5,0-329.2,0c-1.7,0-3.3,0.2-5,0.3c-0.2-0.2-0.6-0.3-0.9-0.1c-6.8-1.9-14-3-20.4-5.8
	C15.2,82.6,11,57.9,15.7,43.1C20.9,26.9,35.4,15.4,52.5,14c1.5-0.1,2.9-0.4,4.4-0.6L58.1,13.3z M417,44.2l2.4-1.1
	c-0.2-0.4-0.4-0.7-0.6-1.1l-2.8,2.1c0.2,0.3,0.4,0.7,0.6,1L417,44.2z M414,38.6l2,1.9c-0.3-1.1-0.7-2.1-1-3.2l1.8-5.8
	c-1.9-0.6-3.9-1.1-5.8-1.6c-0.7-0.1-1.3-0.1-2,0l7.1-3.3c-3.4-2.9-6-1.6-8.4,0.6C403,28.1,400.8,34,403,40l6.6,6.9
	c0.2-2.9,0.3-4,0.3-5.2c0.2-1.7,0.4-3.3,0.8-5.8L414,38.6z M110,81l14.9-1V48L110,47.2c-0.3,5.1-0.8,10.3-0.8,15.4
	C109.3,68.7,109.7,74.8,110,81z M203,35h-13c-0.4,2-0.8,4-1.1,6.1l-9.6,3c1.3,1.1,2.3,2.4,3.5,2.7c1.9,0.5,3.9,0.2,5.9,0.3v34h15.5
	V47h8.4v-5.1h-8.2L203,35z M256.8,61.1c-2.1-7.5-6.9-12.8-14.3-14.8c-3.9-1.1-8.3-0.6-12.4-0.7c-7.9-0.1-13.3,4.3-17.1,10.6
	c-3.7,6.1-2.9,12.5,1.3,18.2C224,87.6,246.7,86.2,255,72c-0.3-0.9-0.6-2.6-1-2.6c-4.2-0.2-8.5-0.1-12.6-0.1c-0.7,2.8-1.4,5.1-2,7.5
	c-2.7,0.6-5.8,2.4-7.9,1.6c-1.9-0.7-3.2-4.2-3.9-6.6c-0.7-2.3-0.4-4.8-0.5-7.3c8.9-0.1,17.7-0.2,26.6-0.3
	C255.9,64.1,257.8,64.2,256.8,61.1L256.8,61.1z M149.4,57.1c2.2-3.5,5.1-5.7,9.5-4.5s5.4,4.7,5.2,9c-0.2,6.4-0.1,12.8-0.1,19.4h15.8
	c0-5.7,0-11,0-16.3c0-11.5-3.9-17-15.1-18.8c-4.1-0.7-8.7,1.9-13.1,2.8c-0.8,0.2-1.7-0.4-2.6-0.6l-14.9-1.6v35.4L149,80
	c0-7.3,0-14.7,0.1-22L149.4,57.1z M307.2,80.1c-0.1-8.1,0-16.3-0.4-24.4c-0.1-1.5-1.7-3.1-2.9-4.4c-6.2-6.7-16.2-8.2-25.2-2
	c-5-6-11.4,1.5-16.3-2.1V81h15.4c0-6.7,0.2-13-0.1-19.3c-0.2-4.5,0.9-8,5.6-9.2s7.5,1.5,9.4,5.4V82L307.2,80.1z M99.8,30.1l-16-1.1
	v36.6C76.7,54,70.4,43.8,64,33.7c-1-1.6-2.4-4.1-3.7-4.1c-5-0.3-10,0.3-15,0.5v51H61V46c1.1,1.2,2.1,2.4,3,3.7
	C70.7,60,77.4,70.4,84,80.8h15.8L99.8,30.1z M342.2,48.2c-1.4-0.6-2.1-0.8-2.9-1.2c-8.1-3.6-16.5-1.3-22.2,5.8
	c-4.8,6.4-5,15.2-0.5,21.8c5,7,13.5,9.4,22.2,6.5c1-0.4,2.1-0.6,3.1-0.6c5.2,0.3,10.3,0.8,15.5,1.2V29.6h-15.3V48.2z M383.2,83.2
	c11.3,0.3,18.4-3.1,23.2-10.4c3.5-5.3,4-11.6,0.4-16.9c-4-5.9-9-11.2-17.3-10.3c-2.5,0.2-5,0.3-7.6,0.2c-13-0.5-22.3,12.7-17.3,24.6
	C368.6,79.8,376.5,82.6,383.2,83.2L383.2,83.2z M109.3,39.6h15.4v-10h-15.4V39.6z M420,29.4v12.5C424,38.6,424.1,33.8,420,29.4z"/>
<path class="st2" d="M56,97.6c0.3-0.2,0.7-0.2,0.9,0.1L56,97.6z"/>
<path class="st2" d="M396,97.7c0.2-0.2,0.6-0.3,0.9-0.1L396,97.7z"/>
<path class="st2" d="M58.1,13.3l-1.2,0.1L58.1,13.3z"/>
<path class="st2" d="M396.1,13.4l-1.2-0.1L396.1,13.4z"/>
<path class="st3" d="M45.2,30.1c5-0.2,10-0.8,15-0.5c1.3,0.1,2.7,2.6,3.7,4.1C70.4,43.8,76.7,54,83.8,65.5V28.9l16,1.1
	c-0.4,1.9-0.7,3.9-0.8,5.8c-0.1,13.2-0.1,26.3,0,39.5c0,3.4-1.2,4.8-4.7,4.7s-6.9,0.4-10.3,0.7C77.4,70.4,70.7,60,64,49.7
	c-0.9-1.3-1.9-2.5-3-3.7c-0.5,1.7-0.8,3.5-1,5.2c-0.1,7.8-0.2,15.7,0,23.5c0.2,4.2-1.4,5.8-5.5,5.3c-1.2-0.1-2.3-0.1-3.5,0
	c-4,0.5-5.2-1.3-5.1-5.2c0.2-13,0.1-26,0-39C45.8,33.9,45.6,32,45.2,30.1z"/>
<path class="st4" d="M342.2,48.2V29.6h15.3v52.1c-5.1-0.4-10.3-0.9-15.5-1.2c-1.1,0-2.2,0.2-3.1,0.6c-8.7,3-17.3,0.5-22.2-6.5
	c-4.5-6.6-4.3-15.4,0.5-21.8c5.6-7.1,14-9.4,22.2-5.8C340.1,47.4,340.8,47.7,342.2,48.2z M330.1,63.4c0,2.7-0.2,5.3,0,8
	c0.3,3.4,2.4,5.5,5.9,5.5s5.9-1.7,6.1-5.2c0.3-5.1,0.3-10.3,0-15.4c-0.2-3.5-2.6-5.3-6-5.2c-3.1-0.2-5.7,2.1-5.9,5.2
	c0,0.1,0,0.2,0,0.3C330,58.8,330,61.1,330.1,63.4z"/>
<path class="st0" d="M292.8,57.9c-1.9-3.9-4.6-6.6-9.4-5.4s-5.8,4.7-5.6,9.2c0.2,6.3,0.1,12.6,0.1,19.3h-15.4V47.2
	c4.9,3.6,11.3-3.9,16.3,2.1c8.9-6.3,19-4.7,25.2,2c1.2,1.3,2.8,2.9,2.9,4.4c0.4,8.1,0.3,16.2,0.4,24.4c-1.7,0-3.3,0-5,0
	c-8.2,0-8,0-8.2-8C293.8,67.3,293.2,62.6,292.8,57.9z"/>
<path class="st5" d="M149,48c0.9,0.2,1.8,0.8,2.6,0.6c4.4-0.9,9-3.4,13.1-2.8c11.2,1.8,15.1,7.3,15.1,18.8c0,5.3,0,10.6,0,16.3
	h-15.7c0-6.6-0.1-13,0.1-19.4c0.1-4.2-0.8-7.7-5.2-9s-7.3,1-9.5,4.5l-0.4,1c0,7.3,0,14.7-0.1,22c-3.5,0-7,0.3-10.4-0.2
	c-1.3-0.2-3.4-2.2-3.4-3.4c-0.3-8.3-0.3-16.5,0-24.8c0.1-1.2,2.1-3.2,3.4-3.4C142,47.7,145.6,48,149,48z"/>
<path class="st6" d="M383.2,83.2c-6.8-0.6-14.6-3.4-18.6-12.8c-5-11.9,4.3-25,17.3-24.5c2.5,0.1,5.1,0,7.6-0.2
	c8.4-0.9,13.3,4.3,17.3,10.3c3.6,5.4,3.1,11.6-0.4,16.9C401.6,80.1,394.5,83.5,383.2,83.2z M392.6,63.9c-0.1-3.2-0.2-6.3-0.5-9.5
	c-0.4-3.4-2.4-5.5-5.9-5.6s-6.1,1.6-6.3,5.1c-0.5,6.6-0.5,13.2,0.1,19.8c0.2,2.1,4,5.4,6,5.3c2.2-0.1,4.9-3.3,5.9-5.7
	C393,70.6,392.4,67.1,392.6,63.9z"/>
<path class="st7" d="M255,72c-8.3,14.2-31,15.6-40.7,2.3c-4.2-5.7-4.9-12.1-1.3-18.2c3.8-6.3,9.1-10.8,17.1-10.6
	c4.1,0.1,8.5-0.4,12.4,0.7c7.4,2.1,12.2,7.3,14.3,14.9c-1.8,0.7-3.5,1.8-5.3,1.8c-6.5,0.2-12.9,0-19.4,0.2c-1.7,0-3.4,0.9-5,1.4
	c0.1,2.4-0.2,5,0.5,7.3c0.8,2.5,2,5.9,3.9,6.6c2.1,0.8,5.2-0.9,7.9-1.6C244.3,70.3,247.5,69.3,255,72z M227.4,60
	c4,0,7.1,0.2,10.2-0.1c1.2-0.1,2.3-0.8,3.1-1.8c1.4-2.8-1.4-8-4.5-9c-3.3-1.1-6.9,0.6-8,3.9c-0.1,0.2-0.1,0.3-0.2,0.5
	C227.7,55.7,227.5,57.9,227.4,60z"/>
<path class="st3" d="M188.7,47.1c-2-0.1-4,0.2-5.9-0.3c-1.2-0.3-2.2-1.6-3.5-2.7l9.6-3c0.4-2,0.8-4,1.1-6.1h13l1.4,6.9h8.2v5h-8.4
	c-0.6,1.7-1,3.4-1.2,5.2c-0.1,7.8-0.1,15.6,0,23.4c0.1,3.2-1,4.7-4.3,4.4c-1.3-0.1-2.7-0.1-4,0c-3.8,0.4-4.9-1.4-4.8-5
	c0.2-7.6,0.1-15.3,0-22.9C189.9,50.5,189.1,48.8,188.7,47.1z"/>
<path class="st8" d="M124.9,48v32L110,81c-0.3-6.2-0.7-12.3-0.8-18.5c0-5.1,0.5-10.2,0.8-15.4L124.9,48z"/>
<path class="st9" d="M109.3,39.6v-10h15.4v10H109.3z"/>
<path class="st10" d="M45.2,30.1c0.4,1.9,0.6,3.9,0.8,5.8c0.1,13,0.2,26,0,39c-0.1,3.9,1.2,5.6,5.1,5.2c1.2-0.1,2.3-0.1,3.5,0
	c4,0.5,5.6-1.1,5.5-5.3c-0.3-7.8-0.1-15.7,0-23.5c0.1-1.8,0.4-3.5,0.9-5.3v35.1H45.2V30.1z"/>
<path class="st11" d="M407.7,27.2c2.4-2.2,5-3.5,8.4-0.6l-7.1,3.3c0.3,4,0.6,7.9,0.9,11.9c-0.1,1.1-0.1,2.3-0.3,5.2L403,40
	L407.7,27.2z"/>
<path class="st12" d="M188.7,47.1c0.4,1.7,1.2,3.4,1.3,5.1c0.1,7.6,0.2,15.3,0,22.9c-0.1,3.6,1,5.4,4.8,5c1.3-0.1,2.7-0.1,4,0
	c3.3,0.3,4.4-1.3,4.3-4.4c-0.1-7.8-0.1-15.6,0-23.4c0.2-1.8,0.6-3.5,1.1-5.2v34h-15.5V47.1z"/>
<path class="st13" d="M409.9,41.7c-0.3-4-0.6-7.9-0.9-11.9c0.7-0.1,1.3-0.1,2,0c2,0.5,3.9,1.1,5.8,1.6l-1.8,5.8l-1,1.3l-3.3-2.7
	C410.3,38.4,410.1,40.1,409.9,41.7z"/>
<path class="st14" d="M84.1,80.8c3.4-0.3,6.9-0.8,10.3-0.7s4.7-1.2,4.6-4.7c-0.1-13.2-0.1-26.3,0-39.5c0.1-2,0.4-3.9,0.8-5.8v50.7
	H84.1z"/>
<path class="st15" d="M149,48c-3.5,0-7-0.3-10.4,0.2c-1.3,0.2-3.4,2.2-3.4,3.4c-0.3,8.3-0.3,16.5,0,24.8c0.1,1.2,2.1,3.2,3.4,3.4
	c3.4,0.5,6.9,0.2,10.4,0.2l-14.8,1.9V46.5L149,48z"/>
<path class="st16" d="M255,72c-7.5-2.7-10.7-1.7-15.6,4.8c0.6-2.4,1.2-4.7,2-7.5c4.1,0,8.4-0.1,12.6,0.1
	C254.4,69.4,254.7,71.1,255,72z"/>
<path class="st17" d="M292.8,57.9c0.4,4.7,1,9.4,1.1,14.1c0.2,8,0.1,8,8.2,8c1.7,0,3.3,0,5,0l-14.4,2V57.9z"/>
<path class="st10" d="M227.1,64.4c1.7-0.5,3.3-1.3,5-1.4c6.5-0.2,12.9,0.1,19.4-0.2c1.8-0.1,3.6-1.2,5.3-1.8c1,3.1-0.9,3.1-3.1,3.1
	C244.8,64.2,236,64.3,227.1,64.4z"/>
<path class="st5" d="M407.7,27.2L403,40C400.8,34,403,28.1,407.7,27.2z"/>
<path class="st18" d="M420,29.4c4.2,4.5,4,9.2,0,12.5V29.4z"/>
<path class="st19" d="M124.9,48L110,47.2L124.9,48z"/>
<path class="st19" d="M110,81l14.9-1L110,81z"/>
<path class="st11" d="M414,38.6l1-1.3c0.3,1.1,0.7,2.1,1,3.2L414,38.6z"/>
<path class="st12" d="M204.4,41.9L203,35L204.4,41.9z"/>
<path class="st12" d="M190,35c-0.4,2-0.8,4-1.1,6.1C189.2,39,189.6,37,190,35z"/>
<path class="st18" d="M416,44.1l2.9-2.1c0.2,0.4,0.4,0.7,0.6,1.1l-2.4,1.1L416,44.1z"/>
<path class="st11" d="M416,44.1l1.1,0.2l-0.4,0.8C416.4,44.7,416.2,44.4,416,44.1z"/>
<path class="st15" d="M149.1,58l0.4-1L149.1,58z"/>
<path class="st1" d="M330.1,63.4c-0.1-2.3-0.1-4.6,0-7c0.1-3.1,2.6-5.5,5.7-5.4c0.1,0,0.2,0,0.3,0c3.5,0,5.9,1.7,6,5.2
	c0.3,5.1,0.3,10.3,0,15.4c-0.2,3.5-2.7,5.2-6.1,5.2s-5.5-2.1-5.9-5.5C329.9,68.8,330.1,66.1,330.1,63.4z"/>
<path class="st20" d="M392.6,63.9c-0.2,3.2,0.4,6.6-0.7,9.4c-1,2.4-3.7,5.6-5.9,5.7c-2,0.1-5.7-3.2-6-5.3
	c-0.6-6.6-0.7-13.2-0.1-19.8c0.2-3.4,2.8-5.2,6.3-5.1s5.5,2.2,5.9,5.6C392.4,57.6,392.5,60.8,392.6,63.9z"/>
<path class="st21" d="M227.4,60c0.1-2.1,0.3-4.3,0.7-6.3c0.8-3.4,4.3-5.4,7.7-4.6c0.2,0,0.3,0.1,0.5,0.2c3.1,1,5.8,6.2,4.5,9
	c-0.7,1-1.8,1.6-3.1,1.8C234.5,60.1,231.4,60,227.4,60z"/>
</svg>
