<?xml version="1.0" standalone="no"?>
<!DOCTYPE svg PUBLIC "-//W3C//DTD SVG 1.1//EN" "http://www.w3.org/Graphics/SVG/1.1/DTD/svg11.dtd" >
<svg xmlns="http://www.w3.org/2000/svg" xmlns:xlink="http://www.w3.org/1999/xlink" version="1.1">
<metadata></metadata>
<defs>
<font id="medula_oneregular" horiz-adv-x="669" >
<font-face units-per-em="2048" ascent="1638" descent="-410" />
<missing-glyph horiz-adv-x="245" />
<glyph horiz-adv-x="0" />
<glyph unicode="&#xd;" horiz-adv-x="681" />
<glyph unicode=" "  horiz-adv-x="245" />
<glyph unicode="&#x09;" horiz-adv-x="245" />
<glyph unicode="&#xa0;" horiz-adv-x="245" />
<glyph unicode="!" horiz-adv-x="303" d="M63 1331q70 10 138 10q33 0 32 -34l-20 -795l8 -193q-29 -10 -96 -10q-33 0 -33 35l-20 795zM70 84q0 104 86 104t86 -104t-86 -104t-86 104z" />
<glyph unicode="&#x22;" horiz-adv-x="514" d="M41 1083q27 70 27 238q0 106 88 106.5t88 -112.5q0 -78 -46 -159t-100 -81q-33 0 -57 8zM281 1083q27 70 26 238q0 106 88 106.5t88 -112.5q0 -78 -46 -159t-99 -81q-33 0 -57 8z" />
<glyph unicode="#" horiz-adv-x="913" d="M33 554q0 40 26 40h152l55 207h-28q-51 0 -103 -10q-14 53 -14 93t26 40h152l74 270l24 125q74 33 115 33t33 -31l-109 -397h164l74 270l24 125q74 33 105 33q51 0 43 -31l-109 -397h31l106 10q10 -53 10.5 -93t-26.5 -40h-153l-56 -207h31l106 10q10 -53 10.5 -93 t-26.5 -40h-154l-88 -334l-22 -125q-78 -33 -105 -32q-53 0 -45 30l123 461h-164l-88 -334l-22 -125q-78 -33 -107 -32q-51 0 -43 30l123 461h-28q-68 0 -103 -10q-14 53 -14 93zM348 594h164l55 207h-164z" />
<glyph unicode="$" horiz-adv-x="622" d="M49 168v254q0 37 53 51q29 8 57.5 8t57.5 -6q-6 -49 -6 -104v-174q0 -37 28.5 -59.5t71.5 -22.5t71 22.5t28 59.5v231q0 80 -56 115l-217 141q-84 53 -84 174v277q0 86 50.5 140t138.5 71v96q0 61 -19 125q61 33 110.5 32.5t49.5 -30.5v-223q86 -16 135 -64.5t49 -118.5 v-254q0 -37 -53 -51q-29 -8 -57.5 -8t-57.5 6q6 49 7 105v174q0 39 -27 60.5t-70 21.5t-68.5 -21.5t-25.5 -60.5v-240q0 -72 47 -100l217 -140q92 -57 92 -176v-282q0 -86 -50 -139.5t-138 -69.5v-99q0 -47 18 -125q-61 -33 -110 -32.5t-49 30.5v224q-88 12 -140.5 61 t-52.5 121z" />
<glyph unicode="%" horiz-adv-x="968" d="M37 14q0 6 6 17l657 1143q37 63 56 124q81 33 149 33q27 0 27 -16q0 -6 -4 -15l-658 -1142q-31 -55 -53 -125q-86 -33 -133 -33t-47 14zM57 872v312q0 80 49.5 124t133.5 44t130 -41t46 -121v-311q0 -80 -50.5 -124t-133 -44t-129 40.5t-46.5 120.5zM176 872 q0 -29 16.5 -46t43 -17t44 18.5t17.5 44.5v318q0 27 -17.5 45t-44 18t-43 -17t-16.5 -46v-318zM553 141v312q0 80 49 124t133 44t130 -41t46 -121v-312q0 -78 -50 -122.5t-133 -44.5t-129 40.5t-46 120.5zM672 141q0 -29 16.5 -46t43 -17t44 18.5t17.5 44.5v318 q0 27 -17.5 45t-44 18t-43 -17t-16.5 -46v-318z" />
<glyph unicode="&#x26;" horiz-adv-x="768" d="M70 197v262q0 92 59 141q-59 49 -59 141v394q0 102 69.5 159.5t185 57.5t183 -52.5t67.5 -136.5v-151q0 -37 -53 -51q-29 -8 -57.5 -8.5t-56.5 5.5q6 49 6 105v72q0 82 -90 82q-43 0 -68 -21.5t-25 -60.5v-385q0 -37 24 -59.5t62 -22.5h109l20 112q4 29 35 42.5 t54.5 13.5t39.5 -2v-166h35l107 10q10 -53 10 -93t-27 -40h-125v-348q0 -49 36 -68.5t66 -19.5t50 4q10 -54 10 -103q0 -31 -39 -30q-164 0 -219 47q-66 -47 -168 -47t-171.5 57t-69.5 160zM231 197q0 -39 26 -60.5t68 -21.5t69.5 19t27.5 54v344h-96q-43 0 -69 -22.5 t-26 -58.5v-254z" />
<glyph unicode="'" horiz-adv-x="276" d="M41 1083q27 70 27 238q0 106 88 106.5t88 -112.5q0 -78 -46 -159t-100 -81q-33 0 -57 8z" />
<glyph unicode="(" horiz-adv-x="370" d="M74 -102v1312q0 102 70.5 159.5t185.5 57.5q14 -45 14 -96q0 -31 -31.5 -31t-58.5 -23.5t-27 -57.5v-1321q0 -35 31 -58.5t72 -23.5q14 -45 14 -86t-27 -41q-102 0 -172.5 55t-70.5 154z" />
<glyph unicode=")" horiz-adv-x="370" d="M27 -281q0 53 14 97q41 0 71.5 23.5t30.5 58.5v1321q0 35 -26.5 58t-58 23t-31.5 31q0 53 14 96q115 0 185.5 -57t70.5 -160v-1312q0 -98 -70.5 -153.5t-173.5 -55.5q-26 -1 -26 30z" />
<glyph unicode="*" horiz-adv-x="739" d="M39 863q0 11 14 20l205 110l-113 60l-100 41q4 57 29 104q18 29 39 14l202 -125l-6 132l-16 104q47 29 92 29t45 -27l-4 -235l106 67q55 39 84 68q47 -29 74 -74q8 -14 8 -26.5t-12 -18.5l-209 -113l113 -59q45 -25 102 -37q-4 -63 -24.5 -99t-44.5 -22l-199 121l6 -123 l14 -106q-53 -29 -94 -29t-41 27l6 235l-108 -70l-86 -65q-49 33 -65.5 59.5t-16.5 37.5z" />
<glyph unicode="+" horiz-adv-x="569" d="M39 644q0 40 27 40h153v86l-10 107q61 10 101 10t40 -27v-176h64l106 10q10 -49 10 -89t-26 -40h-154v-86q0 -51 10 -102q-61 -14 -101 -14.5t-40 26.5v176h-63q-68 0 -103 -10q-14 49 -14 89z" />
<glyph unicode="," horiz-adv-x="280" d="M-12 -49q72 0 71 145q0 117 88.5 117t88.5 -123q0 -90 -41 -157.5t-97 -67.5q-115 0 -110 86z" />
<glyph unicode="-" horiz-adv-x="548" d="M61.5 644q-0.5 40 26.5 40h283l106 10q10 -53 10 -93t-26 -40h-283q-68 0 -102 -10q-14 53 -14.5 93z" />
<glyph unicode="." horiz-adv-x="270" d="M47 96.5q0 116.5 88 116.5t88 -116.5t-88 -116.5t-88 116.5z" />
<glyph unicode="/" horiz-adv-x="933" d="M18 -293q0 6 2 12l682 1551q25 59 37 125q74 32 146 32q31 0 30 -16q0 -6 -4 -14l-682 -1551q-29 -66 -34 -125q-78 -33 -127.5 -32.5t-49.5 18.5z" />
<glyph unicode="0" horiz-adv-x="612" d="M74 188v947q0 102 63.5 159.5t172 57.5t169 -53.5t60.5 -155.5v-946q0 -102 -64.5 -159.5t-173 -57.5t-168 53t-59.5 155zM227 188q0 -35 22.5 -58.5t56.5 -23.5t56.5 24t22.5 58v955q0 35 -22.5 58.5t-56.5 23.5t-56.5 -23.5t-22.5 -58.5v-955z" />
<glyph unicode="1" horiz-adv-x="530" d="M29 1231v10q0 23 24 29l260 65q11 2 21 2q61 0 61 -43v-1171h2l107 10q10 -53 10 -93t-27 -40h-327l-107 -10q-10 53 -10 93t27 40h172v1065l-58 -10q-72 -12 -116 -43q-29 33 -39 96z" />
<glyph unicode="2" horiz-adv-x="587" d="M45 122q0 79 35 186.5t84 198.5t98 185q119 223 119 445q0 84 -86 84q-41 0 -63.5 -21.5t-22.5 -60.5v-97l6 -104q-27 -6 -54.5 -6t-54.5 8q-51 14 -51 51v168q0 88 63.5 140.5t172.5 52.5q246 0 246 -181q0 -264 -111 -487q-47 -92 -94 -176q-111 -207 -111 -385h213 l107 10q10 -53 10 -93t-27 -40h-411q-27 0 -47.5 21.5t-20.5 100.5z" />
<glyph unicode="3" horiz-adv-x="587" d="M53 172v127q0 37 49 51q29 8 55.5 8t53.5 -6q-4 -49 -4 -104v-60q0 -37 22.5 -59.5t56 -22.5t56.5 23t23 59v301q0 39 -22.5 60.5t-61.5 21.5h-103q-27 0 -26 29q0 43 14 111q33 -10 100 -11h27q35 0 55.5 22.5t20.5 59.5v355q0 84 -81 84t-81 -82v-97l6 -104 q-27 -6 -54.5 -6t-54.5 8q-51 14 -51 51v168q0 90 58.5 141.5t164.5 51.5q242 0 242 -181v-393q0 -92 -55 -141q55 -49 55 -141v-299q0 -102 -63.5 -159.5t-169 -57.5t-169 54t-63.5 138z" />
<glyph unicode="4" horiz-adv-x="651" d="M16 1241q-2 51 30 81t89.5 30t83 -33t25.5 -109v-592h157v545q0 78 -14 168q61 8 133 8q35 0 35 -30v-1139q0 -43 15.5 -61.5t58.5 -18.5q2 -53 -28 -81.5t-87 -28.5t-85 34.5t-28 114.5v367h-311v665q0 43 -15.5 61.5t-58.5 18.5z" />
<glyph unicode="5" horiz-adv-x="573" d="M53 172v127q0 37 49 51q29 8 55.5 8t53.5 -6q-4 -49 -4 -104v-60q0 -37 22.5 -59.5t56 -22.5t56.5 23t23 59v383q0 39 -23 60.5t-61 21.5h-84l-121 -6v551q-10 53 -10 93t26 40h297l107 10q10 -53 10 -93t-27 -40h-250v-422h60q109 0 169 -53t60 -155v-381 q0 -102 -63.5 -159.5t-169 -57.5t-169 54t-63.5 138z" />
<glyph unicode="6" horiz-adv-x="602" d="M74 188v961q0 203 229 203q106 0 171 -46t65 -128v-168q0 -35 -50 -47q-25 -8 -52 -8.5t-54 6.5q6 45 6 96v67q0 96 -81 96.5t-81 -85.5v-353q63 53 131 54q180 0 181 -209v-430q0 -102 -63.5 -159.5t-172 -57.5t-169 53t-60.5 155zM227 188q0 -34 22.5 -58t57.5 -24 t56.5 23t21.5 59v437q0 70 -61.5 69.5t-96.5 -63.5v-443z" />
<glyph unicode="7" horiz-adv-x="557" d="M25 1298q0 33 32 33h467q10 -59 10.5 -140t-32.5 -218t-92 -260q-170 -344 -170 -541q0 -45 13 -60.5t56 -15.5q0 -117 -137 -116q-51 0 -80 37.5t-29 103.5q0 129 48.5 278.5t104.5 265t104.5 265t48.5 278.5h-199q-78 0 -127 -12q-18 37 -18 102z" />
<glyph unicode="8" horiz-adv-x="602" d="M70 188v289q0 100 61 150q-59 55 -59 149v359q0 102 62.5 159.5t171 57.5t167.5 -53.5t59 -155.5v-359q0 -92 -63 -149q66 -51 66 -150v-288q0 -102 -64.5 -159.5t-173.5 -57.5t-168 53t-59 155zM223 188q0 -35 22.5 -58.5t56.5 -23.5t56.5 24t22.5 58v299 q0 35 -22.5 58.5t-56.5 23.5t-56.5 -23.5t-22.5 -58.5v-299zM225 774q0 -35 22.5 -58.5t55.5 -23.5t54.5 23.5t21.5 58.5v369q0 35 -22.5 58.5t-55.5 23.5t-54.5 -23.5t-21.5 -58.5v-369z" />
<glyph unicode="9" horiz-adv-x="602" d="M63 154v168q0 35 50 47q25 8 52.5 8t53.5 -6q-6 -45 -6 -97v-67q0 -96 81 -96t81 86v352q-57 -53 -135 -53q-176 0 -177 209v430q0 102 63.5 159.5t172.5 57.5t169 -53.5t60 -155.5v-961q0 -203 -229 -202q-106 0 -171 46t-65 128zM217 707q0 -70 59 -70q63 0 99 63v443 q0 35 -22.5 58.5t-57.5 23.5t-56.5 -22.5t-21.5 -59.5v-436z" />
<glyph unicode=":" horiz-adv-x="311" d="M68 270.5q0 116.5 88 116.5t88 -116.5t-88 -116.5t-88 116.5zM68 731q0 117 88 117t88 -117t-88 -117t-88 117z" />
<glyph unicode=";" horiz-adv-x="348" d="M37 125q72 0 72 145q0 117 88 117t88 -123q0 -90 -41 -157.5t-97 -67.5q-115 0 -110 86zM109 731q0 117 88 117t88 -117t-88 -117t-88 117z" />
<glyph unicode="&#x3c;" horiz-adv-x="786" d="M23 578l518 497q35 35 75 103q66 -20 102 -56.5t13 -56.5l-516 -490l426 -397q47 -43 102 -76q-20 -66 -49.5 -94t-42 -28t-20.5 8z" />
<glyph unicode="=" horiz-adv-x="540" d="M68 533q0 40 26 40h262l107 11q10 -53 10 -93t-27 -40h-262q-68 0 -102 -11q-14 53 -14 93zM68 759q0 40 26 40h262l107 10q10 -53 10 -93t-27 -40h-262q-68 0 -102 -10q-14 53 -14 93z" />
<glyph unicode="&#x3e;" horiz-adv-x="784" d="M43 1049q20 66 50 94t42 28t21 -8l608 -590l-518 -497q-37 -35 -76 -103q-66 20 -101.5 56.5t-13.5 56.5l516 489l-426 398q-47 43 -102 76z" />
<glyph unicode="?" horiz-adv-x="532" d="M31 719v129q0 82 59.5 129t173 47t172 -56.5t58.5 -146.5v-305q0 -117 -80 -166l-74 -45q-53 -33 -53 -108l8 -193q-61 -10 -129 -10q-33 0 -33 35v217q0 119 88 168l74 41q45 25 45 96v256q0 86 -82 86q-78 0 -78 -96v-31l6 -96q-27 -6 -54.5 -6t-51.5 8q-49 12 -49 47z M127 -188.5q0 116.5 88 116.5t88 -116.5t-88 -116.5t-88 116.5z" />
<glyph unicode="@" horiz-adv-x="1075" d="M45 -106l80 1257q6 86 67.5 133t159.5 47h484q98 0 150 -45t52 -123v-12l-59 -969q-8 -174 -201 -174q-117 0 -160 82q-59 -66 -141 -65.5t-120 44.5t-38 115v23l37 584q6 90 64.5 139t152.5 49h201l-51 -789v-12q0 -57 58.5 -57t62.5 67l61 963q2 33 -18.5 50.5 t-57.5 17.5h-487q-80 0 -84 -68l-78 -1251q-2 -33 18.5 -50.5t57.5 -17.5h496l98 10l4 -94q-4 -29 -27 -29h-583q-100 0 -149.5 42t-49.5 114v19zM453 209q-2 -61 51 -62q27 0 52.5 20.5t33.5 43.5l43 653h-68q-31 0 -52 -18.5t-24 -48.5z" />
<glyph unicode="A" d="M74 25v1110q0 102 69.5 159.5t190.5 57.5t187.5 -53.5t66.5 -155.5v-969q0 -43 17.5 -60.5t60.5 -17.5q0 -116 -129 -116h-2q-109 0 -109 141v391h-190v-319l8 -193q-70 -10 -138 -10q-32 0 -32 35zM236 647h190v488q0 39 -26.5 60.5t-69.5 21.5t-68.5 -21.5t-25.5 -60.5 v-488z" />
<glyph unicode="B" horiz-adv-x="673" d="M12 1217v6q0 49 29 77q31 30 99.5 30.5t95.5 -66.5q79 67 161 67h2q203 0 203 -201v-358q0 -94 -59 -143q70 -47 69 -156v-256q0 -102 -70.5 -159.5t-191.5 -57.5h-262v1133q0 45 -16.5 64.5t-59.5 19.5zM250 135h104q43 0 70 21.5t27 60.5v256q0 39 -27 60.5t-70 21.5 h-104v-420zM250 690h100q41 0 65.5 22.5t24.5 59.5v346q0 78 -80 78q-55 0 -110 -55v-451z" />
<glyph unicode="C" horiz-adv-x="636" d="M68 188v947q0 102 69.5 159.5t187 57.5t187.5 -52.5t70 -136.5v-254q0 -37 -54 -51q-29 -8 -57.5 -8t-56.5 6q6 49 6 105v174q0 39 -26.5 60.5t-69.5 21.5t-69 -21.5t-26 -60.5v-938q0 -37 26 -59.5t69 -22.5t69.5 21.5t26.5 60.5v45l-6 104q29 6 57.5 6t56.5 -8 q53 -14 54 -51v-113q0 -86 -73 -143t-189.5 -57t-184 53t-67.5 155z" />
<glyph unicode="D" d="M12 1217v6q0 49 29 77q31 30 99.5 30.5t95.5 -66.5q79 67 163 67q203 0 203 -201v-913q0 -102 -70.5 -159.5t-191.5 -57.5h-252v1133q0 45 -16.5 64.5t-59.5 19.5zM250 135h94q43 0 69.5 21.5t26.5 60.5v901q0 78 -80 78q-55 0 -110 -55v-1006z" />
<glyph unicode="E" horiz-adv-x="626" d="M66 197v286q0 92 59 142q-59 49 -59 141v369q0 102 69.5 159.5t185 57.5t183 -52.5t67.5 -136.5v-172q0 -37 -53 -51q-29 -8 -57.5 -8t-57.5 6q6 49 7 104v93q0 82 -91 82q-43 0 -67.5 -21.5t-24.5 -60.5v-361q0 -37 23.5 -59.5t62.5 -22.5h31q74 0 111 10 q16 -57 16 -112q0 -33 -29 -33h-120q-43 0 -69 -22.5t-26 -59.5v-278q0 -39 26 -60.5t69 -21.5t69.5 21.5t26.5 60.5v51l-6 104q29 6 57.5 6t56.5 -8q53 -14 54 -51v-131q0 -84 -70 -136t-187.5 -52t-187 57t-69.5 160z" />
<glyph unicode="F" horiz-adv-x="532" d="M10 1217v6q0 49 29 77q31 30 88 31h260l102 10q16 -57 17 -112q0 -33 -29 -33h-229v-483h102q74 0 111 10q16 -57 16 -113q0 -33 -28 -32h-201v-404q0 -43 17.5 -60.5t60.5 -17.5q0 -116 -129 -116h-2q-109 0 -109 141v1012q0 45 -16.5 64.5t-59.5 19.5z" />
<glyph unicode="G" d="M72 176v959q0 102 69.5 159.5t187 57.5t187.5 -52.5t70 -136.5v-233q0 -37 -54 -51q-29 -8 -57.5 -8.5t-56.5 6.5q6 49 6 104v154q0 39 -26.5 60.5t-69.5 21.5t-69 -21.5t-26 -60.5v-947q0 -74 74 -74h1q75 1 116 72v308q-55 0 -111 -11q-16 57 -16 113q0 33 29 33h260 v-455q0 -43 16 -61.5t60 -18.5v-7q0 -48 -28 -77q-30 -30 -85 -30q-86 0 -111 63q-57 -63 -157 -63q-209 0 -209 196z" />
<glyph unicode="H" horiz-adv-x="690" d="M10 1233q0 117 131 117q109 0 109 -142v-534h190v465l-8 192q70 10 137 10q33 0 33 -34v-1133q0 -43 17.5 -60.5t60.5 -17.5q0 -116 -129 -116h-2q-109 0 -109 141v418h-190v-346l8 -193q-70 -10 -137 -10q-33 0 -33 35v1130q0 43 -17.5 60.5t-60.5 17.5z" />
<glyph unicode="I" horiz-adv-x="313" d="M68 1331q70 10 137 10q33 0 33 -34v-1114l8 -193q-70 -10 -137 -10q-33 0 -33 35v1114z" />
<glyph unicode="J" horiz-adv-x="649" d="M61 168v254q0 37 54 51q29 8 57.5 8t56.5 -6q-6 -49 -6 -104v-174q0 -39 26.5 -60.5t69.5 -21.5t69 21.5t26 60.5v999h-205q-74 0 -111 -10q-16 57 -16 112q0 33 29 33h464v-1134q0 -102 -69.5 -159.5t-187 -57.5t-187.5 52t-70 136z" />
<glyph unicode="K" horiz-adv-x="692" d="M10 1235q0 117 131 117q109 0 109 -142v-514h92q41 0 69.5 22.5t28.5 59.5v385q0 100 -14 168q70 8 141 8q35 0 35 -30v-531q0 -92 -65 -145q66 -51 65 -146v-313q0 -43 17.5 -60.5t60.5 -17.5q0 -116 -129 -116h-2q-109 0 -109 141v358q0 37 -27.5 59.5t-70.5 22.5h-92 v-393q0 -78 14 -168q-70 -8 -141 -8q-35 0 -35 31v1134q0 43 -17.5 60.5t-60.5 17.5z" />
<glyph unicode="L" horiz-adv-x="516" d="M68 1331q70 10 137 10q33 0 33 -34v-1172h143q74 0 111 10q16 -57 16 -112q0 -33 -29 -33h-403v1139z" />
<glyph unicode="M" horiz-adv-x="1032" d="M10 1217v6q0 49 29 77q31 30 98.5 30.5t95.5 -66.5q79 67 162 67h2q125 0 172 -78q84 78 176 78q203 0 203 -201v-956q0 -43 17.5 -60.5t60.5 -17.5q0 -116 -129 -116h-2q-109 0 -109 141v997q0 78 -79 78q-63 0 -107 -51v-952l8 -193q-70 -10 -137 -10q-33 0 -33 35 v1093q0 78 -80 78q-55 0 -110 -55v-948l8 -193q-70 -10 -137 -10q-33 0 -33 35v1108q0 45 -16.5 64.5t-59.5 19.5z" />
<glyph unicode="N" horiz-adv-x="684" d="M10 1217v6q0 49 29 77q31 30 98.5 30.5t95.5 -66.5q79 67 162 67h2q203 0 203 -201v-956q0 -43 17.5 -60.5t60.5 -17.5q0 -116 -129 -116h-2q-109 0 -109 141v997q0 78 -80 78q-55 0 -110 -55v-948l8 -193q-70 -10 -137 -10q-33 0 -33 35v1108q0 45 -16.5 64.5 t-59.5 19.5z" />
<glyph unicode="O" horiz-adv-x="649" d="M68 188v947q0 102 69.5 159.5t190.5 57.5t187.5 -53.5t66.5 -155.5v-946q0 -102 -71 -159.5t-191.5 -57.5t-186 53t-65.5 155zM229 197q0 -37 26 -59.5t69 -22.5t69.5 21.5t26.5 60.5v938q0 39 -26.5 60.5t-69.5 21.5t-69 -21.5t-26 -60.5v-938z" />
<glyph unicode="P" horiz-adv-x="651" d="M10 1217v6q0 49 29 77q31 30 98.5 30.5t95.5 -66.5q79 67 162 67h2q203 0 203 -201v-503q0 -102 -70.5 -159.5t-191.5 -57.5h-90v-217l8 -193q-70 -10 -137 -10q-33 0 -33 35v1108q0 45 -16.5 64.5t-59.5 19.5zM248 545h94q43 0 69.5 21.5t26.5 60.5v491q0 78 -80 78 q-55 0 -110 -55v-596z" />
<glyph unicode="Q" horiz-adv-x="649" d="M68 188v947q0 102 69.5 159.5t190.5 57.5t187.5 -53.5t66.5 -155.5v-946q0 -170 -176 -207l16 -96q10 -66 63 -66q16 0 39 8q8 -25 8 -58.5t-33.5 -67.5t-84.5 -34q-123 0 -140 105l-34 205q-172 32 -172 202zM229 197q0 -37 26 -59.5t69 -22.5t69.5 21.5t26.5 60.5v938 q0 39 -26.5 60.5t-69.5 21.5t-69 -21.5t-26 -60.5v-938z" />
<glyph unicode="R" horiz-adv-x="677" d="M10 1217v6q0 49 29 77q31 30 98.5 30.5t95.5 -66.5q79 67 162 67h2q203 0 203 -201v-475q0 -129 -108 -184l43 -274q10 -66 63 -66q16 0 39 8q8 -25 8 -58.5t-33.5 -67t-87.5 -33.5q-121 0 -137 104l-59 354h-80v-245l8 -193q-70 -10 -137 -10q-33 0 -33 35v1108 q0 45 -16.5 64.5t-59.5 19.5zM248 573h94q43 0 69.5 21.5t26.5 60.5v463q0 78 -80 78q-55 0 -110 -55v-568z" />
<glyph unicode="S" horiz-adv-x="643" d="M59 168v254q0 37 54 51q29 8 57.5 8t56.5 -6q-6 -49 -6 -104v-174q0 -37 29 -59.5t72 -22.5t70.5 22.5t27.5 59.5v231q0 80 -55 115l-218 141q-84 53 -84 174v277q0 102 70 159.5t187.5 57.5t187.5 -52.5t70 -136.5v-254q0 -37 -54 -51q-29 -8 -57.5 -8t-56.5 6 q6 49 6 105v174q0 39 -27 60.5t-70 21.5t-68.5 -21.5t-25.5 -60.5v-240q0 -72 47 -100l217 -140q92 -57 93 -176v-282q0 -102 -72 -159.5t-189.5 -57.5t-189.5 52t-72 136z" />
<glyph unicode="T" horiz-adv-x="571" d="M16 1298q0 33 29 33h383q74 0 111 10q16 -57 16 -112q0 -33 -29 -33h-159v-1003l8 -193q-70 -10 -137 -10q-33 0 -33 35v1171h-62q-74 0 -110 -10q-16 57 -17 112z" />
<glyph unicode="U" horiz-adv-x="684" d="M6 1235q0 117 131 117q109 0 109 -142v-1022q0 -74 74 -74t116 72v977q0 100 -14 168q70 8 141 8q35 0 35 -30v-1135q0 -43 16.5 -61.5t59.5 -18.5v-7q0 -49 -28 -77q-30 -30 -85 -30q-86 0 -110 63q-57 -63 -158 -63q-209 0 -209 196v981q0 43 -17.5 60.5t-60.5 17.5z " />
<glyph unicode="V" horiz-adv-x="667" d="M-4 1235q0 117 135 117q109 0 109 -142q0 -272 25.5 -587.5t70.5 -499.5q45 203 81 520.5t36 469t-15 218.5q76 8 144 8q39 0 39 -41q0 -260 -43 -627.5t-101 -572.5q-29 -98 -86 -98h-121q-63 0 -86 98q-110 471 -110 1049v10q0 43 -17.5 60.5t-60.5 17.5z" />
<glyph unicode="W" horiz-adv-x="1015" d="M6 1235q0 117 131 117q109 0 109 -142v-1013q0 -39 25.5 -60.5t66.5 -21.5t67.5 19.5t26.5 53.5v975q0 100 -14 168q70 8 141 8q35 0 35 -30v-1112q0 -39 25.5 -60.5t67.5 -21.5t67.5 21.5t25.5 60.5v966q0 100 -14 168q70 8 141 8q35 0 35 -30v-1112 q0 -102 -69.5 -159.5t-189.5 -57.5t-177 57q-57 -57 -175 -57t-182.5 53t-64.5 155v969q0 43 -17.5 60.5t-60.5 17.5z" />
<glyph unicode="X" horiz-adv-x="694" d="M12 1235q0 117 131 117q109 0 109 -142v-434q0 -37 26.5 -59.5t66.5 -22.5t68.5 22.5t28.5 59.5v387q0 78 -14 168q70 8 141 8q35 0 35 -30v-533q0 -92 -65 -145q66 -51 65 -146v-311q0 -43 17.5 -60.5t60.5 -17.5q0 -116 -129 -116h-2q-109 0 -109 141v356 q0 37 -27.5 59.5t-68.5 22.5t-67.5 -23.5t-26.5 -58.5v-309q0 -100 14 -168q-70 -8 -141 -8q-35 0 -35 31v454q0 94 62 146q-61 47 -62 145v389q0 43 -17.5 60.5t-60.5 17.5z" />
<glyph unicode="Y" horiz-adv-x="675" d="M10 1235q0 117 131 117q109 0 109 -142v-538q0 -74 74.5 -74t115.5 72v493q0 100 -14 168q70 8 141 8q35 0 35 -30v-1112q0 -102 -69.5 -159.5t-187.5 -57.5t-187.5 52t-69.5 136v139q0 37 53 51q29 8 57.5 8.5t57.5 -6.5q-6 -49 -6 -104v-59q0 -39 26.5 -60.5 t69.5 -21.5t68.5 21.5t25.5 60.5v319q-53 -53 -143 -53q-209 0 -209 196v498q0 43 -17.5 60.5t-60.5 17.5z" />
<glyph unicode="Z" horiz-adv-x="583" d="M35 120.5q0 63.5 18.5 164t71.5 218.5t108 230q137 283 138 463h-181q-78 0 -127 -12q-18 41 -18 106q0 41 33 41h459q8 -53 8 -134t-38 -224.5t-106 -272.5q-186 -358 -192 -565h194q78 0 132 12q12 -41 12 -106q0 -41 -33 -41h-469q-10 57 -10 120.5z" />
<glyph unicode="[" horiz-adv-x="452" d="M78 -311v1738h223q53 0 111 11q16 -49 16 -105q0 -33 -29 -33h-168v-1484h70q74 0 111 10q16 -49 16 -105q0 -33 -29 -32h-321z" />
<glyph unicode="\" horiz-adv-x="958" d="M16 1395q49 33 102.5 32.5t69.5 -30.5l682 -1551q18 -41 60 -108l12 -17q-45 -33 -101.5 -32.5t-68.5 30.5l-682 1551q-23 51 -61 106z" />
<glyph unicode="]" horiz-adv-x="452" d="M25 -283q0 55 16 109q35 -10 111 -10h69v1484h-168q-29 0 -28 29q0 51 16 109q35 -10 111 -11h223v-1738h-322q-29 0 -28 28z" />
<glyph unicode="^" horiz-adv-x="530" d="M41 1104q0 6 4 12l109 199l30 69q20 16 75.5 16.5t84.5 -14.5q10 -31 33 -71l108 -199q4 -6 4 -14t-10 -15l-76 -36q-10 27 -34 61l-105 154l-102 -154l-35 -61q-86 31 -86 53z" />
<glyph unicode="_" horiz-adv-x="552" d="M47 56q0 40 27 40h315l107 10q10 -45 10 -84.5t-27 -39.5h-315q-68 0 -103 -11q-14 45 -14 85z" />
<glyph unicode="`" horiz-adv-x="587" d="M236 1335q0 14 52 36t72 28l21 6q8 -47 27 -90l69 -168q4 -6 4 -14.5t-10 -14.5l-74 -37q-14 27 -37 62l-118 174q-6 10 -6 18z" />
<glyph unicode="a" horiz-adv-x="606" d="M43 221q0 168 141 254l187 111v221q0 86 -81 86t-81 -96v-68l6 -96q-27 -6 -54.5 -6t-51.5 8q-49 12 -50 47v168q0 82 65 128t171 46q229 0 229 -203v-651q0 -43 15.5 -61.5t58.5 -18.5v-7q0 -49 -28 -75q-30 -28 -85 -28q-86 0 -104 63q-63 -63 -149.5 -63t-137.5 65.5 t-51 175.5zM270 119q64 0 101 74v247l-99 -65q-68 -45 -68 -149q1 -107 66 -107z" />
<glyph unicode="b" horiz-adv-x="604" d="M55 1395q59 32 127 32h4q41 0 41 -30v-426q63 53 131 53q180 0 181 -209v-598q0 -102 -63.5 -159.5t-172.5 -57.5h-229v1270q0 61 -19 125zM227 131h80q35 0 56.5 21.5t21.5 56.5v604q0 70 -61.5 70t-96.5 -64v-688z" />
<glyph unicode="c" horiz-adv-x="573" d="M66 209v614q0 201 237 201q104 0 163.5 -47t59.5 -127v-168q0 -35 -49 -47q-25 -8 -52.5 -8t-53.5 6q6 45 6 96v68q0 51 -18.5 73.5t-63.5 22.5q-76 0 -76 -64v-596q0 -63 20.5 -91.5t68.5 -28.5t93.5 30.5t57.5 63.5q82 -37 82 -107q0 -23 -19 -37q-81 -83 -244 -83h-4 q-209 0 -208 229z" />
<glyph unicode="d" horiz-adv-x="618" d="M66 188v598q0 102 63.5 160t171.5 58h76v266q0 61 -19 125q59 32 127 32h4q41 0 41 -30v-1227q0 -43 15.5 -61.5t58.5 -18.5v-7q0 -49 -28 -75q-30 -28 -84 -28q-82 0 -105 63q-63 -63 -143 -63t-129 54t-49 154zM219 190q0 -71 58 -71h2q31 0 58.5 23.5t39.5 50.5v679 h-80q-35 0 -56.5 -21.5t-21.5 -55.5v-605z" />
<glyph unicode="e" horiz-adv-x="583" d="M66 182v641q0 201 236.5 201t236.5 -225q0 -90 -33 -166t-90 -115l-197 -135v-186q0 -86 81 -86t81 96v47l-6 96q27 6 54.5 6t51.5 -8q49 -12 49 -47v-147q0 -82 -64.5 -128t-170.5 -46h-2q-227 0 -227 202zM219 537l98 73q64 48 64 195q0 41 -24.5 64.5t-61.5 23.5 q-76 0 -76 -64v-292z" />
<glyph unicode="f" horiz-adv-x="507" d="M23 922.5q0 40.5 26 40.5h51v268q0 92 55.5 147.5t162 55.5t169 -46.5t62.5 -127.5v-105q0 -35 -49 -49q-25 -6 -52.5 -6t-54.5 6q6 45 6 96v12q0 45 -16 67t-58 22t-56.5 -23t-14.5 -70v-247h102l107 10q10 -53 10 -93t-27 -40h-192v-672q0 -78 14 -164 q-61 -12 -133 -12q-35 0 -35 31v817l-63 -11q-14 53 -14 93.5z" />
<glyph unicode="g" horiz-adv-x="587" d="M45 -82q0 150 109 199v143q-96 51 -97 182v344q0 102 63.5 160t172.5 58h104l125 8v-561q0 -98 -58 -154.5t-157 -63.5v-96h41q102 0 155.5 -59.5t53.5 -167.5q0 -221 -201 -221h-102q-102 0 -155.5 60.5t-53.5 168.5zM193 -87q0 -95 55 -95h106q55 0 55 95t-55 95h-106 q-55 0 -55 -95zM211 442q0 -35 22.5 -58.5t56.5 -23.5t56.5 24t22.5 58v430h-80q-35 0 -56.5 -21t-21.5 -56v-353z" />
<glyph unicode="h" horiz-adv-x="622" d="M55 1395q59 32 127 32h4q41 0 41 -30v-426q63 53 139 53t124.5 -51t48.5 -146v-657q0 -43 15 -61.5t58 -18.5v-7q0 -49 -28 -75q-30 -28 -87 -28t-84.5 34.5t-27.5 114.5v686q0 68 -70 68q-57 0 -88 -64v-651q0 -98 15 -164q-61 -12 -133 -12q-35 0 -35 31v1247 q0 61 -19 125z" />
<glyph unicode="i" horiz-adv-x="333" d="M12.5 963.5q-0.5 40.5 26.5 40.5h205v-834q0 -43 15 -61.5t58 -18.5v-7q1 -49 -27 -75q-30 -28 -87.5 -28t-85 34.5t-27.5 114.5v752l-63 -11q-14 53 -14.5 93.5zM78 1306.5q0 116.5 88 116.5t88 -116.5t-88 -116.5t-88 116.5z" />
<glyph unicode="j" horiz-adv-x="468" d="M-37 -90q0 35 49 49q25 6 52.5 6t54.5 -6q-6 -45 -6 -96v-10q0 -53 65 -53v-1q64 0 64 72v1010l-219 -11q-14 53 -14.5 93.5t26.5 40.5h360v-1149q0 -92 -60.5 -139.5t-156.5 -47.5q-215 0 -215 156v86zM229 1317q0 117 88.5 117t88.5 -117t-88.5 -117t-88.5 117z" />
<glyph unicode="k" horiz-adv-x="626" d="M55 1395q59 32 127 32h4q41 0 41 -30v-881h80q31 0 54.5 23.5t23.5 58.5v238q0 78 -14 168q61 8 133 8q35 0 35 -31v-373q0 -94 -62 -149q61 -51 62 -150v-139q0 -43 15 -61.5t58 -18.5v-6q0 -46 -30 -74q-32 -30 -89 -30t-82.5 32.5t-25.5 108.5v190q0 37 -23.5 59.5 t-58.5 22.5h-76v-225q0 -98 15 -164q-61 -12 -133 -12q-35 0 -35 31v1247q0 61 -19 125z" />
<glyph unicode="l" horiz-adv-x="319" d="M57 1395q59 32 127 32h4q41 0 41 -30v-1227q0 -43 15.5 -61.5t58.5 -18.5v-7q1 -49 -27 -75q-30 -28 -87.5 -28t-85 34.5t-27.5 114.5v1141q0 47 -19 125z" />
<glyph unicode="m" horiz-adv-x="933" d="M16 913v7q0 48 28 75q30 29 96.5 29t92.5 -63q63 63 152.5 63t134.5 -80q70 80 155 80t130 -51t45 -146v-657q0 -43 15.5 -61.5t58.5 -18.5v-7q0 -49 -28 -75q-30 -28 -87 -28t-85 34.5t-28 114.5v686q0 68 -63 68q-55 0 -86 -64v-651q0 -100 14 -168q-61 -8 -133 -8 q-35 0 -35 31v792q0 68 -63 68q-55 0 -86 -64v-651q0 -100 14 -168q-61 -8 -133 -8q-35 0 -35 31v811q0 43 -15.5 61t-58.5 18z" />
<glyph unicode="n" horiz-adv-x="638" d="M16 913v7q0 48 28 75q30 29 95.5 29t93.5 -63q68 63 147 63t127 -51t48 -146v-657q0 -43 15.5 -61.5t58.5 -18.5v-7q0 -49 -28 -75q-30 -28 -87 -28t-85 34.5t-28 114.5v686q0 68 -69 68q-57 0 -88 -64v-651q0 -100 14 -168q-61 -8 -133 -8q-35 0 -35 31v811 q0 43 -15.5 61t-58.5 18z" />
<glyph unicode="o" horiz-adv-x="595" d="M66 188v619q0 102 63.5 159.5t172 57.5t168.5 -53t60 -156v-618q0 -102 -64.5 -159.5t-173 -57.5t-167.5 53t-59 155zM219 188q0 -35 22.5 -58.5t56.5 -23.5t56.5 24t22.5 58v627q0 35 -22.5 58.5t-56.5 23.5t-56.5 -23.5t-22.5 -58.5v-627z" />
<glyph unicode="p" horiz-adv-x="620" d="M16 913v7q0 48 28 75q30 29 96.5 29t92.5 -63q63 63 143.5 63t129.5 -54.5t49 -154.5v-598q0 -102 -63.5 -159.5t-172.5 -57.5h-75v-164l14 -135q-55 -23 -127 -23q-41 0 -41 31v1125q0 43 -15.5 61t-58.5 18zM244 131h80q35 0 56 21.5t21 56.5v604q0 72 -59 72 q-31 0 -58.5 -23.5t-39.5 -50.5v-680z" />
<glyph unicode="q" horiz-adv-x="604" d="M66 188v598q0 102 63.5 160t171.5 58h229v-1168l15 -135q-55 -23 -127 -23q-41 0 -41 31v324q-63 -53 -131 -53q-180 0 -180 208zM219 190q0 -70 61 -70v0q62 1 97 64v688h-80q-35 0 -56.5 -21.5t-21.5 -55.5v-605z" />
<glyph unicode="r" horiz-adv-x="573" d="M16 913v7q0 48 28 75q30 29 85 29q82 0 102 -82q51 82 146 82q168 0 168 -162v-205q0 -35 -49 -47q-25 -8 -52.5 -8t-54.5 6q6 45 6 97v104q0 68 -61 68q-29 0 -53.5 -27t-36.5 -59v-623q0 -98 14 -164q-61 -12 -133 -12q-35 0 -35 31v811q0 43 -15.5 61t-58.5 18z" />
<glyph unicode="s" horiz-adv-x="571" d="M51 154v135q0 35 49 47q25 8 52.5 8t54.5 -6q-6 -45 -6 -96v-39q0 -92 83 -92t83 100v84q0 76 -54 108l-180 109q-80 49 -80 166v143q0 90 58.5 146.5t172 56.5t173 -47t59.5 -129v-129q0 -35 -49 -47q-25 -8 -52.5 -8t-54.5 6q6 45 7 96v31q0 96 -78 96q-82 0 -82 -86 v-94q0 -72 45 -97l180 -104q88 -49 88 -168v-154q0 -98 -58.5 -154t-171 -56t-176 45t-63.5 129z" />
<glyph unicode="t" horiz-adv-x="579" d="M18.5 963.5q-0.5 40.5 26.5 40.5h55l29 192q8 45 76 45q20 0 45 -4v-233h178l107 10q10 -53 10 -93t-27 -40h-268v-684q0 -43 21.5 -67t54.5 -24q76 0 75 101v149l-6 97q27 6 54.5 6t52.5 -8q49 -12 49 -48v-245q0 -86 -65.5 -132t-167 -46t-162 52t-60.5 140v709 l-63 -11q-14 53 -14.5 93.5z" />
<glyph unicode="u" horiz-adv-x="636" d="M8 913v6q0 47 30 75q32 30 89 30t83 -33t26 -108v-693q0 -71 57 -71h2q31 0 58.5 23.5t39.5 50.5v643q0 78 -14 168q61 8 133 8q35 0 35 -31v-811q0 -43 15.5 -61.5t58.5 -18.5v-7q0 -49 -28 -75q-30 -28 -85 -28q-82 0 -105 63q-63 -63 -143 -63t-129 54t-49 154v646 q0 43 -15.5 61t-58.5 18z" />
<glyph unicode="v" horiz-adv-x="616" d="M-6 913v6q0 47 30 75q32 30 89 30t82.5 -33t25.5 -146.5t29 -341t63 -372.5q94 420 95 743l-5 134q39 8 75 8t65.5 -8.5t29.5 -40.5q0 -174 -40.5 -450.5t-92.5 -442.5q-23 -74 -73 -74h-121q-51 0 -74 74q-45 156 -74.5 382t-29.5 378q0 43 -15.5 61t-58.5 18z" />
<glyph unicode="w" horiz-adv-x="927" d="M8 913v6q0 47 30 75q32 30 89 30t83 -33t26 -108v-695q0 -35 22.5 -58.5t55 -23.5t56 19.5t23.5 50.5v660q0 78 -14 168q61 8 133 8q35 0 35 -31v-805q0 -31 21.5 -50.5t56 -19.5t57.5 24t23 58v648q0 78 -15 168q61 8 133 8q35 0 35 -31v-784q0 -102 -64.5 -159.5 t-170 -57.5t-160.5 55q-55 -55 -158.5 -55t-163 53t-59.5 155v646q0 43 -15.5 61t-58.5 18z" />
<glyph unicode="x" horiz-adv-x="641" d="M14 913v6q0 47 30 75q32 30 89 30t83 -33t26 -108v-285q0 -37 22.5 -59.5t56 -21.5t56 23.5t22.5 57.5v238q0 100 -14 168q61 8 133 8q35 0 35 -31v-373q0 -94 -61 -149q61 -51 61 -150v-139q0 -43 15.5 -61.5t58.5 -18.5v-6q0 -46 -30 -74q-32 -30 -89 -30t-83 32.5 t-26 108.5v190q0 37 -23.5 59.5t-57 22.5t-55 -22.5t-21.5 -59.5v-143q0 -78 14 -168q-61 -8 -133 -8q-35 0 -35 31v278q0 98 62 150q-61 55 -62 149v234q0 43 -15.5 61t-58.5 18z" />
<glyph unicode="y" horiz-adv-x="622" d="M10 913v6q0 47 30 75q32 30 89 30t83 -33t26 -108v-654q0 -67 51 -67h2q29 0 59.5 19.5t44.5 43.5v611q0 100 -14 168q61 8 133 8q35 0 35 -31v-1126q0 -92 -64.5 -139.5t-173 -47.5t-168 41t-59.5 113v76q0 35 49 49q25 6 52.5 6t54.5 -6q-6 -49 -7 -86v-11 q0 -51 81 -51t81 72v203q-51 -51 -132 -51t-130 52t-49 152v607q0 43 -15.5 61t-58.5 18z" />
<glyph unicode="z" horiz-adv-x="520" d="M31 94.5q0 55.5 30.5 156.5t90.5 202q164 276 163 428h-157q-68 0 -103 -11q-14 53 -14 93.5t27 40.5h407q10 -41 10 -97.5t-29.5 -158t-86.5 -201.5q-164 -279 -170 -424h168l106 10q10 -53 10 -93t-26 -40h-416q-10 39 -10 94.5z" />
<glyph unicode="{" horiz-adv-x="493" d="M10 475q0 61 15 111q33 -10 102.5 -10.5t69.5 81.5v553q0 217 258 217q18 -39 18 -94q0 -33 -36 -33t-61.5 -21.5t-25.5 -59.5v-566q0 -92 -55 -141q55 -49 55 -141v-473q0 -39 25.5 -60.5t68.5 -21.5q14 -45 14.5 -86t-26.5 -41q-109 0 -172 57t-63 160v459 q0 39 -22.5 60t-61.5 21h-76q-27 0 -27 29z" />
<glyph unicode="|" horiz-adv-x="296" d="M59 1395q61 33 110.5 32.5t49.5 -30.5v-1551q0 -47 19 -125q-61 -33 -110.5 -32.5t-49.5 30.5v1551q0 61 -19 125z" />
<glyph unicode="}" horiz-adv-x="491" d="M20 1343q0 43 19 84q258 0 258 -217v-553q0 -82 72 -82l100 11q14 -51 14 -95.5t-26 -44.5h-76q-39 0 -61.5 -21.5t-22.5 -59.5v-459q0 -102 -63.5 -159.5t-172.5 -57.5q-27 0 -26 30q0 53 14 97q43 0 68.5 21.5t25.5 60.5v473q0 92 56 141q-55 49 -56 141v566 q0 39 -25.5 60t-68.5 21q-29 0 -29 43z" />
<glyph unicode="~" horiz-adv-x="694" d="M53 602q0 8 2 19q10 76 95 75q12 0 28 -2l324 -43h12q43 0 51 51q39 -2 57.5 -26.5t18.5 -44.5q0 -102 -96 -103q-12 0 -29 2l-321 45h-13q-41 0 -51 -53q-78 8 -78 80z" />
<glyph unicode="&#xa1;" horiz-adv-x="301" d="M59 1247.5q0 104.5 86 104.5t86 -104.5t-86 -104.5t-86 104.5zM68 25l20 794l-8 193q29 10 96 10q33 0 33 -35l20 -794l9 -193q-70 -10 -138 -10q-33 0 -32 35z" />
<glyph unicode="&#xa2;" horiz-adv-x="559" d="M51 209v614q0 174 176 197v106q0 47 -18 125q61 33 110.5 33t49.5 -31v-239q68 -14 105.5 -58.5t37.5 -105.5v-168q0 -35 -49 -47q-25 -8 -52.5 -8t-54.5 6q6 45 6 96v68q0 51 -18 73.5t-63 22.5q-76 0 -76 -64v-596q0 -63 20.5 -91.5t68.5 -28.5t93 30.5t57 63.5 q82 -37 82 -107q0 -23 -18 -37q-55 -55 -139 -73v-103q0 -61 18 -125q-61 -33 -110.5 -32.5t-49.5 30.5v222q-176 16 -176 227z" />
<glyph unicode="&#xa3;" horiz-adv-x="636" d="M37 83q0 40 26 40h91v479q-68 0 -103 -10q-14 53 -14 93t26 40h91v424q0 92 55 147.5t161.5 55.5t169 -46t62.5 -128v-105q0 -35 -49 -49q-25 -6 -52.5 -6t-54.5 6q6 45 7 96v13q0 45 -16.5 66.5t-58.5 21.5t-56.5 -22.5t-14.5 -70.5v-403h55l107 10q10 -53 10 -93 t-26 -40h-146v-467h144q74 0 110 10q16 -57 17 -112q0 -33 -29 -33h-395q-68 0 -103 -10q-14 53 -14 93z" />
<glyph unicode="&#xa4;" horiz-adv-x="716" d="M45 889q23 72 59 108q31 27 52 7l71 -72q59 33 135 33t130 -29l55 80q66 -20 101.5 -55t13.5 -58l-84 -84q6 -29 6 -55v-279q-1 -36 -9 -63q39 -35 97 -68q-20 -66 -55 -101.5t-58 -12.5l-70 69q-53 -33 -133 -33t-133 29l-51 -76q-72 23 -109 60q-27 31 -6 51l82 82 q-4 33 -4 55v279q0 31 6 59q-33 33 -96 74zM268 469q0 -39 25.5 -63.5t64.5 -24.5t65 24.5t26 63.5v303q0 39 -26 63.5t-65 24.5t-64.5 -24.5t-25.5 -63.5v-303z" />
<glyph unicode="&#xa5;" d="M27 1237q-2 51 34.5 81t95 30t84 -33t25.5 -109q0 -287 92 -547q94 319 95 539l-4 133q31 8 81 8t75.5 -8t25.5 -41q0 -166 -41 -358.5t-101 -333.5q-27 -63 -57 -72v-69h4l107 10q10 -53 10 -93t-27 -40h-94v-70h4l107 10q10 -53 10 -93t-27 -40h-94l8 -141 q-70 -10 -137 -10q-33 0 -33 35v116h-4q-51 0 -102 -10q-14 53 -14 93t26 40h94v70h-4q-51 0 -102 -10q-14 53 -14 93t26 40h94v69q-35 10 -57 72q-47 121 -80 277.5t-33 240.5t-15 102.5t-58 18.5z" />
<glyph unicode="&#xa6;" horiz-adv-x="301" d="M61 383q61 33 110.5 33t49.5 -31v-539q0 -61 19 -125q-61 -33 -110.5 -32.5t-49.5 30.5v539q0 47 -19 125zM61 1395q61 33 110.5 32.5t49.5 -30.5v-539q0 -61 19 -125q-61 -33 -110.5 -33t-49.5 31v539q0 47 -19 125z" />
<glyph unicode="&#xa7;" horiz-adv-x="593" d="M61 -2q0 35 50 47q25 8 52 8t54 -6q-6 -45 -6 -96v-39q0 -92 83 -92t83 100v84q0 76 -53 109l-181 108q-80 49 -80 166v143q0 66 33 119t84 74l-35 22q-80 51 -79 166v144q0 90 58 146t172 56t173 -47t59 -129v-129q0 -35 -49 -47q-25 -8 -52.5 -8t-53.5 6q6 45 6 96v31 q0 96 -78 96q-82 0 -82 -86v-94q0 -72 45 -96l180 -105q88 -49 88 -167v-154q0 -137 -106 -195l16 -8q88 -45 88 -168v-153q0 -98 -58 -154.5t-171 -56.5t-176.5 45t-63.5 129v135zM217 393q0 -57 105 -110q57 59 57 170v94q0 74 -96 112q-66 -41 -66 -143v-123z" />
<glyph unicode="&#xa8;" horiz-adv-x="542" d="M68 1224.5q0 116.5 88 116.5t88 -116.5t-88 -116.5t-88 116.5zM299 1224.5q0 116.5 88 116.5t88 -116.5t-88 -116.5t-88 116.5z" />
<glyph unicode="&#xa9;" horiz-adv-x="985" d="M74 174v1073q0 86 57 133t158 47h407q100 0 157.5 -47t57.5 -133v-1073q0 -174 -209 -174h-419q-209 0 -209 174zM207 180q0 -31 21.5 -49t58.5 -18h411q37 0 58.5 18.5t21.5 48.5v1067q0 68 -80 68h-411q-80 0 -80 -68v-1067zM309 383v655q0 74 50.5 114t134.5 40 t133 -37t49 -96v-172q0 -41 -92 -41q-16 0 -35 2q4 37 4 74v112q0 53 -60.5 53t-60.5 -53v-641q0 -53 60.5 -53t60.5 53v27l-4 72q20 4 41 4q86 0 86 -39v-80q0 -61 -51.5 -101t-135 -40t-132 37.5t-48.5 109.5z" />
<glyph unicode="&#xaa;" horiz-adv-x="514" d="M49 733q0 127 111 197l143 84v170q0 68 -62.5 67.5t-62.5 -73.5v-54l4 -73q-21 -4 -39 -4q-80 0 -80 40v132q0 63 49.5 98t133.5 35q176 0 176 -156v-502q0 -33 11 -47t44 -14q2 -41 -20.5 -63.5t-76.5 -22.5t-71 51q-47 -51 -113.5 -51t-106.5 50t-40 136zM174 736 q0 -81 50 -81t79 58v188l-76 -49q-53 -35 -53 -116z" />
<glyph unicode="&#xab;" horiz-adv-x="827" d="M16 496l236 407q25 43 47 119q70 -4 112 -28.5t27 -51.5l-262 -448l186 -318q29 -49 80 -100q-41 -59 -88 -86q-16 -8 -29.5 -8t-21.5 14zM365 496l235 407q24 43 47 119q70 -4 107 -25.5t37 -34t-5 -20.5l-262 -448l187 -318q29 -49 80 -100q-41 -59 -89 -86 q-16 -8 -29.5 -8t-21.5 14z" />
<glyph unicode="&#xac;" horiz-adv-x="829" d="M33 963.5q0 40.5 26 40.5h568q53 10 93 10t40 -27q6 -27 6 -58.5t-6 -41.5v-223q0 -51 10 -103q-53 -14 -93 -14t-40 26v308h-487q-68 0 -103 -11q-14 53 -14 93.5z" />
<glyph unicode="&#xad;" horiz-adv-x="548" d="M61.5 644q-0.5 40 26.5 40h283l106 10q10 -53 10 -93t-26 -40h-283q-68 0 -102 -10q-14 53 -14.5 93z" />
<glyph unicode="&#xae;" horiz-adv-x="985" d="M74 174v1073q0 86 57 133t158 47h407q100 0 157.5 -47t57.5 -133v-1073q0 -174 -209 -174h-419q-209 0 -209 174zM207 180q0 -31 21.5 -49t58.5 -18h411q37 0 58.5 18.5t21.5 48.5v1067q0 68 -80 68h-411q-80 0 -80 -68v-1067zM256 1116q-2 37 20.5 58.5t73.5 21.5 t74 -47q55 47 108 47q143 0 144 -143v-338q0 -88 -80 -129l33 -195q6 -47 41 -47q14 0 30 6q6 -23 6.5 -44t-26.5 -45.5t-68 -24.5q-80 0 -94 73l-43 252h-43v-176l6 -135q-57 -8 -106 -8q-23 -1 -23 24v789q0 33 -11 47t-42 14zM432 662h51q31 0 50.5 15t19.5 42v323 q0 54 -51 54q-43 0 -70 -39v-395z" />
<glyph unicode="&#xaf;" horiz-adv-x="557" d="M80 1275q0 40 26 40h254l107 10q10 -45 10 -85t-26 -40h-254q-68 0 -103 -10q-14 45 -14 85z" />
<glyph unicode="&#xb0;" horiz-adv-x="512" d="M45 1182v116q0 150 211 150t211 -145v-117q0 -63 -49 -106.5t-166 -43.5q-207 1 -207 146zM162 1192q0 -61 94 -62q41 0 67.5 16.5t26.5 45.5v100q0 29 -26.5 45.5t-67.5 16.5q-94 -1 -94 -62v-100z" />
<glyph unicode="&#xb1;" horiz-adv-x="573" d="M61.5 398q-0.5 40 26.5 40h307l107 11q10 -53 10 -93.5t-27 -40.5h-307q-68 0 -102 -10q-14 53 -14.5 93zM61.5 785q-0.5 40 26.5 40h133v66l-10 106q61 10 101 10.5t40 -26.5v-156h43l107 11q10 -49 10 -89t-27 -40h-133v-66q0 -68 10 -102q-61 -14 -101 -14.5t-40 26.5 v156h-43q-51 0 -102 -11q-14 49 -14.5 89z" />
<glyph unicode="&#xb2;" horiz-adv-x="495" d="M53 631q0 49 26.5 109.5t64.5 110.5t77 101q90 123 90 234q0 66 -63 65q-31 0 -49.5 -17t-18.5 -46v-43l6 -80q-20 -4 -41.5 -4t-42.5 4q-41 12 -41 41v96q0 70 49.5 110t133.5 40q188 0 188 -140q0 -98 -38 -184t-83 -137q-121 -137 -121 -250h162l82 10 q10 -43 10 -73.5t-20 -30.5h-318q-20 0 -36.5 17.5t-16.5 66.5z" />
<glyph unicode="&#xb3;" horiz-adv-x="477" d="M57 680v78q0 29 41 41q20 6 41 6l41 -6q-4 -37 -4 -80v-27q0 -29 17.5 -45t43 -16t43 16.5t17.5 44.5v115q-1 61 -64 61h-79q-20 0 -21 27l10 82q27 -8 80 -8h19q59 0 59 63v154q0 66 -62.5 65.5t-62.5 -63.5v-43l6 -80q-20 -4 -41.5 -4t-42.5 4q-41 12 -41 41v96 q0 70 45 110t127 40q186 0 187 -140v-184q0 -74 -43 -108q43 -33 43 -109v-113q0 -78 -49.5 -122t-130 -44t-130 41t-49.5 107z" />
<glyph unicode="&#xb4;" horiz-adv-x="587" d="M238 1135q0 6 4 12l69 168l27 90q145 -45 145 -72q0 -6 -6 -16l-119 -174l-36 -62q-84 31 -84 54z" />
<glyph unicode="&#xb5;" horiz-adv-x="690" d="M31 -213q47 0 66.5 11.5t27.5 49.5l39 197q-39 55 -39 143v646q0 43 -15.5 61t-58.5 18q-2 51 30 81t89 30t83 -33t26 -108v-693q0 -72 59 -71q31 0 58.5 23.5t39.5 50.5v643q0 100 -14 168q61 8 133 8q35 0 35 -31v-811q0 -43 15.5 -61.5t58.5 -18.5q2 -53 -28 -81.5 t-85 -28.5q-82 0 -105 63q-63 -63 -141 -63q-14 0 -39 4l-8 -166q-4 -76 -27.5 -109t-81 -33t-89 30t-29.5 81z" />
<glyph unicode="&#xb6;" horiz-adv-x="780" d="M47 606v524q0 201 203 201h385q57 0 88 -30.5t29 -83.5q-43 0 -59.5 -19.5t-16.5 -64.5v-1416q0 -35 -33 -34l-45 2l-29 6q-2 0 -4 2q8 80 8 192v1332h-71v-1500q0 -35 -33 -34l-45 2l-29 6q-2 0 -4 2q8 80 8 192v504h-90q-121 0 -191.5 57.5t-70.5 159.5z" />
<glyph unicode="&#xb7;" horiz-adv-x="282" d="M53 647q0 117 88 117t88 -117t-88 -117t-88 117z" />
<glyph unicode="&#xb8;" horiz-adv-x="710" d="M215 -256.5q0 25.5 18 25.5h138q43 0 43 45t-43 45h-129v155h106v-73h29q137 0 137 -127q0 -66 -30.5 -95.5t-98.5 -29.5h-94l-68 -6q-8 35 -8 60.5z" />
<glyph unicode="&#xb9;" horiz-adv-x="452" d="M45 1260q0 23 21 28l200 51q9 2 19 2q43 0 43 -34v-658h2l82 8q8 -41 8 -71.5t-21 -30.5h-252l-81 -8q-8 41 -8.5 71.5t20.5 30.5h133v576l-45 -6q-57 -12 -88 -35q-23 27 -33 76z" />
<glyph unicode="&#xba;" horiz-adv-x="481" d="M61 709v475q0 80 49.5 124t133.5 44t130 -41t46 -121v-475q0 -80 -50.5 -124t-133 -44t-129 41t-46.5 121zM180 709q0 -29 16.5 -46.5t43 -17.5t44 18.5t17.5 45.5v481q0 27 -17.5 45t-44 18t-43 -17t-16.5 -46v-481z" />
<glyph unicode="&#xbb;" horiz-adv-x="829" d="M37 37q0 12 4 20l262 449l-186 317q-29 49 -80 101q41 59 88 86q16 8 29.5 8t21.5 -14l287 -500l-236 -408q-24 -43 -47 -119q-70 4 -106.5 26t-36.5 34zM385 924q41 59 88 86q16 8 29.5 8t21.5 -14l287 -500l-236 -408q-25 -43 -47 -119q-70 4 -111.5 29t-27.5 51 l262 449l-186 317q-29 49 -80 101z" />
<glyph unicode="&#xbc;" horiz-adv-x="1269" d="M37 1260q0 23 20 28l201 51q8 2 18 2q43 0 43 -34v-658h3l81 8q8 -41 8.5 -71.5t-20.5 -30.5h-252l-82 -8q-8 41 -8 71.5t21 30.5h133v576l-45 -6q-57 -12 -88 -35q-23 27 -33 76zM231 12l605 1372q24 59 36 125q74 33 117 33t43 -16q0 -6 -4 -15l-604 -1372 q-29 -66 -35 -125q-78 -33 -129 -32q-41 0 -29 30zM774 713q-2 41 21.5 63.5t68.5 22.5t64.5 -25.5t19.5 -85.5v-301h121v266q0 70 -12 131q49 4 90 4t41 -22v-641q0 -33 12 -47.5t43 -14.5q4 -84 -86 -83q-47 0 -67.5 26.5t-20.5 87.5v197h-240v360q0 35 -12 48.5t-43 13.5 z" />
<glyph unicode="&#xbd;" horiz-adv-x="1155" d="M31 1260q0 23 20 28l201 51q8 2 18 2q43 0 43 -34v-658h2l82 8q8 -41 8.5 -71.5t-20.5 -30.5h-252l-82 -8q-8 41 -8 71.5t20 30.5h134v576l-45 -6q-57 -12 -89 -35q-23 27 -32 76zM229 12l605 1372q25 59 36 125q74 33 129 33q41 0 27 -31l-604 -1372q-29 -66 -35 -125 q-78 -33 -129 -32q-41 0 -29 30zM733 84q0 49 26.5 109.5t64.5 110.5t77 102q90 123 90 233q0 66 -63 66q-31 0 -49.5 -17.5t-18.5 -46.5v-43l6 -80q-20 -4 -41.5 -4t-42.5 6q-41 10 -41 39v96q0 70 49.5 110t133.5 40q188 0 188 -139q0 -98 -38 -184.5t-83 -137.5 q-121 -137 -121 -250h162l82 10q10 -43 10 -73.5t-20 -30.5h-318q-20 0 -36.5 17.5t-16.5 66.5z" />
<glyph unicode="&#xbe;" horiz-adv-x="1253" d="M45 680v78q0 29 41 41q20 6 41 6l41 -6q-4 -37 -4 -80v-27q0 -29 17.5 -45t43 -16t43 16.5t17.5 44.5v115q-1 61 -64 61h-80q-20 0 -20 27l10 82q27 -8 80 -8h18q59 0 60 63v154q0 66 -62.5 65.5t-62.5 -63.5v-43l6 -80q-20 -4 -42 -4t-42 4q-41 12 -41 41v96 q0 70 45 110t127 40q186 0 186 -140v-184q0 -74 -43 -108q43 -33 43 -109v-113q0 -78 -49 -122t-130 -44t-130 41t-49 107zM213 12l604 1372q25 59 37 125q74 33 117 33t43 -16q0 -6 -4 -15l-604 -1372q-29 -66 -35 -125q-78 -33 -129 -32q-41 0 -29 30zM758 713 q-2 41 21.5 63.5t68.5 22.5t64.5 -25.5t19.5 -85.5v-301h121v266q0 70 -13 131q49 4 90 4t41 -22v-641q0 -33 12.5 -47.5t43.5 -14.5q4 -84 -86 -83q-47 0 -67.5 26.5t-20.5 87.5v197h-240v360q0 35 -12.5 48.5t-42.5 13.5z" />
<glyph unicode="&#xbf;" horiz-adv-x="536" d="M41 182v305q0 117 80 166l74 45q53 33 53 109l-8 192q61 10 129 11q32 0 32 -35v-217q0 -119 -88 -168l-73 -41q-45 -25 -45 -96v-256q0 -86 81 -86q78 0 78 96v31l-6 96q27 6 54.5 6t52.5 -8q49 -12 49 -47v-129q0 -82 -59.5 -129t-173 -47t-172 56t-58.5 146zM231 1192 q0 117 88.5 117t88.5 -117t-88.5 -117t-88.5 117z" />
<glyph unicode="&#xc0;" d="M74 25v1110q0 102 69.5 159.5t190.5 57.5t187.5 -53.5t66.5 -155.5v-969q0 -43 17.5 -60.5t60.5 -17.5q0 -117 -131 -116q-109 0 -109 141v391h-190v-319l8 -193q-70 -10 -138 -10q-32 0 -32 35zM164 1663q0 14 52 35.5t73 27.5l20 7q8 -47 27 -91l70 -167q4 -6 4 -14.5 t-11 -14.5l-73 -37q-14 27 -37 61l-119 175q-6 10 -6 18zM236 647h190v488q0 39 -26.5 60.5t-69.5 21.5t-68.5 -21.5t-25.5 -60.5v-488z" />
<glyph unicode="&#xc1;" d="M74 25v1110q0 102 69.5 159.5t190.5 57.5t187.5 -53.5t66.5 -155.5v-969q0 -43 17.5 -60.5t60.5 -17.5q0 -117 -131 -116q-109 0 -109 141v391h-190v-319l8 -193q-70 -10 -138 -10q-32 0 -32 35zM236 647h190v488q0 39 -26.5 60.5t-69.5 21.5t-68.5 -21.5t-25.5 -60.5 v-488zM272 1462q0 6 4 13l70 167l27 91q145 -45 145 -72q0 -6 -6 -16l-119 -175l-37 -61q-84 31 -84 53z" />
<glyph unicode="&#xc2;" d="M74 25v1110q0 102 69.5 159.5t190.5 57.5t187.5 -53.5t66.5 -155.5v-969q0 -43 17.5 -60.5t60.5 -17.5q0 -117 -131 -116q-109 0 -109 141v391h-190v-319l8 -193q-70 -10 -138 -10q-32 0 -32 35zM129 1462q0 6 4 13l90 167l31 70q20 16 75.5 16.5t84.5 -14.5 q10 -31 32 -72l91 -167q4 -6 4 -14.5t-11 -14.5l-75 -37q-10 27 -35 61l-86 123l-84 -123l-35 -61q-86 31 -86 53zM236 647h190v488q0 39 -26.5 60.5t-69.5 21.5t-68.5 -21.5t-25.5 -60.5v-488z" />
<glyph unicode="&#xc3;" d="M74 25v1110q0 102 69.5 159.5t190.5 57.5t187.5 -53.5t66.5 -155.5v-969q0 -43 17.5 -60.5t60.5 -17.5q0 -117 -131 -116q-109 0 -109 141v391h-190v-319l8 -193q-70 -10 -138 -10q-32 0 -32 35zM102 1538q0 8 2 18q10 76 97 76q12 0 26 -2l187 -26q31 -2 44 8t19 43 q39 -2 57.5 -26.5t18.5 -45.5q0 -102 -98 -102q-12 0 -27 2l-184 28q-31 0 -44.5 -11t-19.5 -42q-78 8 -78 80zM236 647h190v488q0 39 -26.5 60.5t-69.5 21.5t-68.5 -21.5t-25.5 -60.5v-488z" />
<glyph unicode="&#xc4;" d="M74 25v1110q0 102 69.5 159.5t190.5 57.5t187.5 -53.5t66.5 -155.5v-969q0 -43 17.5 -60.5t60.5 -17.5q0 -117 -131 -116q-109 0 -109 141v391h-190v-319l8 -193q-70 -10 -138 -10q-32 0 -32 35zM129 1552.5q0 116.5 88 116.5t88 -116.5t-88 -116.5t-88 116.5zM236 647 h190v488q0 39 -26.5 60.5t-69.5 21.5t-68.5 -21.5t-25.5 -60.5v-488zM360 1552.5q0 116.5 88.5 116.5t88.5 -116.5t-88.5 -116.5t-88.5 116.5z" />
<glyph unicode="&#xc5;" d="M74 25v1110q0 102 69.5 159.5t190.5 57.5t187.5 -53.5t66.5 -155.5v-969q0 -43 17.5 -60.5t60.5 -17.5q0 -117 -131 -116q-109 0 -109 141v391h-190v-319l8 -193q-70 -10 -138 -10q-32 0 -32 35zM160 1511v70q0 121 170 121t170 -117v-69q0 -121 -170 -121.5t-170 116.5z M236 647h190v488q0 39 -26.5 60.5t-69.5 21.5t-68.5 -21.5t-25.5 -60.5v-488zM254 1520q0 -49 76 -49.5t76 49.5v57q0 49 -76 49t-76 -49v-57z" />
<glyph unicode="&#xc6;" horiz-adv-x="987" d="M74 25v1110q0 102 69.5 159.5t186 57.5t180.5 -45q72 45 179.5 45t175 -52.5t67.5 -136.5v-172q0 -37 -53 -51q-29 -8 -57.5 -8t-57.5 6q6 49 6 104v93q0 82 -90 82q-43 0 -67.5 -21.5t-24.5 -60.5l2 -463h117q74 0 110 10q16 -57 17 -113q0 -33 -29 -32h-215l-2 -340 q0 -39 25.5 -60.5t68.5 -21.5t69.5 21.5t26.5 60.5v51l-6 104q29 6 57.5 6t57.5 -8q53 -14 53 -51v-131q0 -84 -69.5 -136t-187.5 -52t-187.5 57t-69.5 160l2 340h-190l-2 -344l8 -193q-70 -10 -138 -10q-33 0 -32 35zM236 1135l2 -463h190l-2 463q0 39 -26.5 60.5 t-69.5 21.5t-68.5 -21.5t-25.5 -60.5z" />
<glyph unicode="&#xc7;" horiz-adv-x="636" d="M68 188v947q0 102 69.5 159.5t187 57.5t187.5 -52.5t70 -136.5v-254q0 -37 -54 -51q-29 -8 -57.5 -8t-56.5 6q6 49 6 105v174q0 39 -26.5 60.5t-69.5 21.5t-69 -21.5t-26 -60.5v-938q0 -37 26 -59.5t69 -22.5t69.5 21.5t26.5 60.5v45l-6 104q29 6 57.5 6t56.5 -8 q53 -14 54 -51v-113q0 -70 -48.5 -121t-127.5 -69v-49h28q137 0 137 -127q0 -66 -30.5 -95.5t-98.5 -29.5h-94l-67 -6q-8 35 -8.5 60.5t18.5 25.5h137q43 0 43 45t-43 45h-129v123q-231 10 -231 206z" />
<glyph unicode="&#xc8;" horiz-adv-x="626" d="M66 197v286q0 92 59 142q-59 49 -59 141v369q0 102 69.5 159.5t185 57.5t183 -52.5t67.5 -136.5v-172q0 -37 -53 -51q-29 -8 -57.5 -8t-57.5 6q6 49 7 104v93q0 82 -91 82q-43 0 -67.5 -21.5t-24.5 -60.5v-361q0 -37 23.5 -59.5t62.5 -22.5h31q74 0 111 10 q16 -57 16 -112q0 -33 -29 -33h-120q-43 0 -69 -22.5t-26 -59.5v-278q0 -39 26 -60.5t69 -21.5t69.5 21.5t26.5 60.5v51l-6 104q29 6 57.5 6t56.5 -8q53 -14 54 -51v-131q0 -84 -70 -136t-187.5 -52t-187 57t-69.5 160zM166 1663q0 14 52 35.5t73 27.5l20 7q8 -47 27 -91 l70 -167q4 -6 4 -14.5t-11 -14.5l-73 -37q-14 27 -37 61l-119 175q-6 10 -6 18z" />
<glyph unicode="&#xc9;" horiz-adv-x="626" d="M66 197v286q0 92 59 142q-59 49 -59 141v369q0 102 69.5 159.5t185 57.5t183 -52.5t67.5 -136.5v-172q0 -37 -53 -51q-29 -8 -57.5 -8t-57.5 6q6 49 7 104v93q0 82 -91 82q-43 0 -67.5 -21.5t-24.5 -60.5v-361q0 -37 23.5 -59.5t62.5 -22.5h31q74 0 111 10 q16 -57 16 -112q0 -33 -29 -33h-120q-43 0 -69 -22.5t-26 -59.5v-278q0 -39 26 -60.5t69 -21.5t69.5 21.5t26.5 60.5v51l-6 104q29 6 57.5 6t56.5 -8q53 -14 54 -51v-131q0 -84 -70 -136t-187.5 -52t-187 57t-69.5 160zM258 1462q0 6 4 13l70 167l26 91q145 -45 146 -72 q0 -6 -6 -16l-119 -175l-37 -61q-84 31 -84 53z" />
<glyph unicode="&#xca;" horiz-adv-x="626" d="M66 197v286q0 92 59 142q-59 49 -59 141v369q0 102 69.5 159.5t185 57.5t183 -52.5t67.5 -136.5v-172q0 -37 -53 -51q-29 -8 -57.5 -8t-57.5 6q6 49 7 104v93q0 82 -91 82q-43 0 -67.5 -21.5t-24.5 -60.5v-361q0 -37 23.5 -59.5t62.5 -22.5h31q74 0 111 10 q16 -57 16 -112q0 -33 -29 -33h-120q-43 0 -69 -22.5t-26 -59.5v-278q0 -39 26 -60.5t69 -21.5t69.5 21.5t26.5 60.5v51l-6 104q29 6 57.5 6t56.5 -8q53 -14 54 -51v-131q0 -84 -70 -136t-187.5 -52t-187 57t-69.5 160zM111 1462q0 6 4 13l90 167l31 70q20 16 75.5 16.5 t83.5 -14.5q10 -31 33 -72l90 -167q4 -6 4 -14.5t-10 -14.5l-76 -37q-10 27 -35 61l-86 123l-84 -123l-34 -61q-86 31 -86 53z" />
<glyph unicode="&#xcb;" horiz-adv-x="626" d="M66 197v286q0 92 59 142q-59 49 -59 141v369q0 102 69.5 159.5t185 57.5t183 -52.5t67.5 -136.5v-172q0 -37 -53 -51q-29 -8 -57.5 -8t-57.5 6q6 49 7 104v93q0 82 -91 82q-43 0 -67.5 -21.5t-24.5 -60.5v-361q0 -37 23.5 -59.5t62.5 -22.5h31q74 0 111 10 q16 -57 16 -112q0 -33 -29 -33h-120q-43 0 -69 -22.5t-26 -59.5v-278q0 -39 26 -60.5t69 -21.5t69.5 21.5t26.5 60.5v51l-6 104q29 6 57.5 6t56.5 -8q53 -14 54 -51v-131q0 -84 -70 -136t-187.5 -52t-187 57t-69.5 160zM115 1552.5q0 116.5 88 116.5t88 -116.5t-88 -116.5 t-88 116.5zM346 1552.5q0 116.5 88 116.5t88 -116.5t-88 -116.5t-88 116.5z" />
<glyph unicode="&#xcc;" horiz-adv-x="313" d="M-10 1663q0 14 52 35.5t73 27.5l20 7q8 -47 27 -91l69 -167q4 -6 4.5 -14.5t-10.5 -14.5l-73 -37q-14 27 -37 61l-119 175q-6 10 -6 18zM66 1331q70 10 137 10q33 0 33 -34v-1114l8 -193q-70 -10 -138 -10q-32 0 -32 35v1114z" />
<glyph unicode="&#xcd;" horiz-adv-x="313" d="M68 1331q70 10 137 10q33 0 33 -34v-1114l8 -193q-70 -10 -137 -10q-33 0 -33 35v1114zM76 1462q0 6 4 13l70 167l26 91q145 -45 146 -72q0 -6 -7 -16l-118 -175l-37 -61q-84 31 -84 53z" />
<glyph unicode="&#xce;" horiz-adv-x="313" d="M-49 1462q0 6 4 13l90 167l31 70q20 16 75.5 16.5t84.5 -14.5q10 -31 32 -72l90 -167q4 -6 4 -14.5t-10 -14.5l-76 -37q-10 27 -34 61l-86 123l-84 -123l-35 -61q-86 31 -86 53zM68 1331q70 10 137 10q33 0 33 -34v-1114l8 -193q-70 -10 -137 -10q-33 0 -33 35v1114z" />
<glyph unicode="&#xcf;" horiz-adv-x="313" d="M-47 1552.5q0 116.5 88 116.5t88 -116.5t-88 -116.5t-88 116.5zM68 1331q70 10 137 10q33 0 33 -34v-1114l8 -193q-70 -10 -137 -10q-33 0 -33 35v1114zM184 1552.5q0 116.5 88 116.5t88 -116.5t-88 -116.5t-88 116.5z" />
<glyph unicode="&#xd0;" horiz-adv-x="673" d="M16 1217q-2 53 29 83.5t98.5 30.5t96.5 -67q80 68 163 67q203 0 203 -201v-913q0 -102 -70.5 -159.5t-191.5 -57.5h-252v555l-65 -8q-10 53 -10.5 93t26.5 40h49v453q0 45 -16.5 64.5t-59.5 19.5zM254 135h94q43 0 69.5 21.5t26.5 60.5v901q1 78 -79 78q-55 0 -111 -55 v-461h18l107 10q10 -53 10 -93t-27 -40h-108v-422z" />
<glyph unicode="&#xd1;" horiz-adv-x="684" d="M10 1217q-2 53 29 83.5t98.5 30.5t95.5 -67q80 68 164 67q203 0 203 -201v-956q0 -43 17.5 -60.5t60.5 -17.5q0 -117 -131 -116q-109 0 -109 141v997q0 78 -80 78q-55 0 -110 -55v-948l8 -193q-70 -10 -137 -10q-33 0 -33 35v1108q0 45 -16.5 64.5t-59.5 19.5zM113 1538 q0 8 2 18q10 76 96 76q12 0 27 -2l186 -26q31 -2 44 8t19 43q39 -2 57.5 -26.5t18.5 -45.5q0 -102 -98 -102q-12 0 -27 2l-184 28q-31 0 -44.5 -11t-19.5 -42q-78 8 -77 80z" />
<glyph unicode="&#xd2;" horiz-adv-x="649" d="M68 188v947q0 102 69.5 159.5t190.5 57.5t187.5 -53.5t66.5 -155.5v-946q0 -102 -71 -159.5t-191.5 -57.5t-186 53t-65.5 155zM156 1663q0 14 52 35.5t73 27.5l20 7q8 -47 27 -91l69 -167q4 -6 4 -14.5t-10 -14.5l-74 -37q-14 27 -36 61l-119 175q-6 10 -6 18zM229 197 q0 -37 26 -59.5t69 -22.5t69.5 21.5t26.5 60.5v938q0 39 -26.5 60.5t-69.5 21.5t-69 -21.5t-26 -60.5v-938z" />
<glyph unicode="&#xd3;" horiz-adv-x="649" d="M68 188v947q0 102 69.5 159.5t190.5 57.5t187.5 -53.5t66.5 -155.5v-946q0 -102 -71 -159.5t-191.5 -57.5t-186 53t-65.5 155zM229 197q0 -37 26 -59.5t69 -22.5t69.5 21.5t26.5 60.5v938q0 39 -26.5 60.5t-69.5 21.5t-69 -21.5t-26 -60.5v-938zM254 1462q0 6 4 13 l70 167l26 91q145 -45 146 -72q0 -6 -6 -16l-119 -175l-37 -61q-84 31 -84 53z" />
<glyph unicode="&#xd4;" horiz-adv-x="649" d="M68 188v947q0 102 69.5 159.5t190.5 57.5t187.5 -53.5t66.5 -155.5v-946q0 -102 -71 -159.5t-191.5 -57.5t-186 53t-65.5 155zM119 1462q0 6 4 13l90 167l31 70q20 16 75.5 16.5t83.5 -14.5q10 -31 33 -72l90 -167q4 -6 4 -14.5t-10 -14.5l-76 -37q-10 27 -34 61l-86 123 l-84 -123l-35 -61q-86 31 -86 53zM229 197q0 -37 26 -59.5t69 -22.5t69.5 21.5t26.5 60.5v938q0 39 -26.5 60.5t-69.5 21.5t-69 -21.5t-26 -60.5v-938z" />
<glyph unicode="&#xd5;" horiz-adv-x="649" d="M68 188v947q0 102 69.5 159.5t190.5 57.5t187.5 -53.5t66.5 -155.5v-946q0 -102 -71 -159.5t-191.5 -57.5t-186 53t-65.5 155zM100 1538q0 8 2 18q10 76 97 76q12 0 26 -2l187 -26q31 -2 44 8t19 43q39 -2 57.5 -26.5t18.5 -45.5q0 -102 -98 -102q-12 0 -27 2l-184 28 q-31 0 -44.5 -11t-19.5 -42q-78 8 -78 80zM229 197q0 -37 26 -59.5t69 -22.5t69.5 21.5t26.5 60.5v938q0 39 -26.5 60.5t-69.5 21.5t-69 -21.5t-26 -60.5v-938z" />
<glyph unicode="&#xd6;" horiz-adv-x="649" d="M68 188v947q0 102 69.5 159.5t190.5 57.5t187.5 -53.5t66.5 -155.5v-946q0 -102 -71 -159.5t-191.5 -57.5t-186 53t-65.5 155zM121 1552.5q0 116.5 88 116.5t88 -116.5t-88 -116.5t-88 116.5zM229 197q0 -37 26 -59.5t69 -22.5t69.5 21.5t26.5 60.5v938q0 39 -26.5 60.5 t-69.5 21.5t-69 -21.5t-26 -60.5v-938zM352 1552.5q0 116.5 88 116.5t88 -116.5t-88 -116.5t-88 116.5z" />
<glyph unicode="&#xd7;" horiz-adv-x="731" d="M53 774q23 72 60 109q31 26 51 6l203 -203l112 113q37 37 76 102q66 -20 101.5 -55t13.5 -58l-203 -202l111 -111q37 -37 102 -76q-20 -66 -55 -101.5t-58 -12.5l-200 200l-111 -110q-39 -39 -76 -101q-72 23 -108 60q-27 31 -6 51l200 201l-112 112q-39 39 -101 76z" />
<glyph unicode="&#xd8;" horiz-adv-x="681" d="M-14 -49q0 8 4 16l96 230v938q0 102 69.5 159.5t194.5 57.5t195 -64q23 45 37 125q25 4 50 4t45.5 -9t20.5 -26q0 -8 -4 -16l-94 -225v-944q0 -102 -70.5 -159.5t-198.5 -57.5t-192 63v-2q-18 -47 -37 -121q-25 -4 -45 -4q-72 0 -71 35zM248 197q0 -37 25.5 -59.5 t68.5 -22.5t69.5 21.5t26.5 60.5v559l-190 -455v-104zM248 580l190 452v103q0 39 -26.5 60.5t-69.5 21.5t-68.5 -21.5t-25.5 -60.5v-555z" />
<glyph unicode="&#xd9;" horiz-adv-x="684" d="M6 1235q0 117 131 117q109 0 109 -142v-1022q0 -74 74.5 -73.5t115.5 71.5v977q0 100 -14 168q70 8 141 8q35 0 35 -30v-1135q0 -43 16.5 -61.5t59.5 -18.5q2 -53 -28 -83.5t-85 -30.5q-86 0 -110 63q-57 -63 -158 -63q-209 0 -209 196v981q0 43 -17.5 60.5t-60.5 17.5z M158 1663q0 14 52 35.5t73 27.5l20 7q8 -47 27 -91l69 -167q4 -6 4 -14.5t-10 -14.5l-74 -37q-14 27 -36 61l-119 175q-6 10 -6 18z" />
<glyph unicode="&#xda;" horiz-adv-x="684" d="M6 1235q0 117 131 117q109 0 109 -142v-1022q0 -74 74.5 -73.5t115.5 71.5v977q0 100 -14 168q70 8 141 8q35 0 35 -30v-1135q0 -43 16.5 -61.5t59.5 -18.5q2 -53 -28 -83.5t-85 -30.5q-86 0 -110 63q-57 -63 -158 -63q-209 0 -209 196v981q0 43 -17.5 60.5t-60.5 17.5z M250 1462q0 6 4 13l70 167l26 91q145 -45 146 -72q0 -6 -7 -16l-118 -175l-37 -61q-84 31 -84 53z" />
<glyph unicode="&#xdb;" horiz-adv-x="684" d="M6 1235q0 117 131 117q109 0 109 -142v-1022q0 -74 74.5 -73.5t115.5 71.5v977q0 100 -14 168q70 8 141 8q35 0 35 -30v-1135q0 -43 16.5 -61.5t59.5 -18.5q2 -53 -28 -83.5t-85 -30.5q-86 0 -110 63q-57 -63 -158 -63q-209 0 -209 196v981q0 43 -17.5 60.5t-60.5 17.5z M135 1462q0 6 4 13l90 167l31 70q20 16 75.5 16.5t84.5 -14.5q10 -31 33 -72l90 -167q4 -6 4 -14.5t-10 -14.5l-76 -37q-10 27 -35 61l-86 123l-84 -123l-35 -61q-86 31 -86 53z" />
<glyph unicode="&#xdc;" horiz-adv-x="684" d="M6 1235q0 117 131 117q109 0 109 -142v-1022q0 -74 74.5 -73.5t115.5 71.5v977q0 100 -14 168q70 8 141 8q35 0 35 -30v-1135q0 -43 16.5 -61.5t59.5 -18.5q2 -53 -28 -83.5t-85 -30.5q-86 0 -110 63q-57 -63 -158 -63q-209 0 -209 196v981q0 43 -17.5 60.5t-60.5 17.5z M139 1552.5q0 116.5 88 116.5t88 -116.5t-88 -116.5t-88 116.5zM371 1552.5q0 116.5 88 116.5t88 -116.5t-88 -116.5t-88 116.5z" />
<glyph unicode="&#xdd;" horiz-adv-x="675" d="M10 1235q0 117 131 117q109 0 109 -142v-538q0 -74 74.5 -74t115.5 72v493q0 100 -14 168q70 8 141 8q35 0 35 -30v-1112q0 -102 -69.5 -159.5t-187.5 -57.5t-187.5 52t-69.5 136v139q0 37 53 51q29 8 57.5 8.5t57.5 -6.5q-6 -49 -6 -104v-59q0 -39 26.5 -60.5 t69.5 -21.5t68.5 21.5t25.5 60.5v319q-53 -53 -143 -53q-209 0 -209 196v498q0 43 -17.5 60.5t-60.5 17.5zM268 1462q0 6 4 13l70 167l27 91q145 -45 145 -72q0 -6 -6 -16l-119 -175l-37 -61q-84 31 -84 53z" />
<glyph unicode="&#xde;" horiz-adv-x="653" d="M10 1233q-2 53 30 85t95.5 32t89 -35t25.5 -98v-281q66 55 149 55q203 0 203 -200v-308q0 -102 -70.5 -159.5t-191.5 -57.5h-90v-73l8 -193q-70 -10 -137 -10q-33 0 -33 35v1126q0 45 -17.5 63.5t-60.5 18.5zM250 401h94q43 0 69.5 21.5t26.5 60.5v295q0 78 -80 78 q-55 0 -110 -55v-400z" />
<glyph unicode="&#xdf;" horiz-adv-x="802" d="M23 922.5q0 40.5 26 40.5h51v268q0 90 74 146.5t197 56.5t203.5 -47.5t80.5 -126.5v-193q0 -51 -68.5 -155.5t-68.5 -157.5v-23q0 -63 57 -96l105 -62q88 -51 88 -167v-216q0 -98 -58.5 -154t-162.5 -56h-105l-98 -11q-14 57 -14 99.5t28 42.5h172q84 0 84 100v145 q0 76 -53 109l-104 65q-92 55 -92 166v72q0 55 70.5 162.5t70.5 183.5v100q0 88 -126 88.5t-126 -92.5v-1265q0 -78 14 -164q-61 -12 -133 -12q-35 0 -35 30v1041l-63 -11q-14 53 -14 93.5z" />
<glyph unicode="&#xe0;" horiz-adv-x="606" d="M43 221q0 168 141 254l187 111v221q0 86 -81 86t-81 -96v-68l6 -96q-27 -6 -54.5 -6t-51.5 8q-49 12 -50 47v168q0 82 65 128t171 46q229 0 229 -203v-651q0 -43 15.5 -61.5t58.5 -18.5q2 -53 -27.5 -81.5t-85.5 -28.5q-86 0 -104 63q-63 -63 -149.5 -63t-137.5 65.5 t-51 175.5zM127 1335q0 14 52 36t73 28l20 6q8 -47 27 -90l70 -168q4 -6 4 -14.5t-11 -14.5l-73 -37q-14 27 -37 62l-119 174q-6 10 -6 18zM204.5 224.5q0.5 -105.5 65 -105.5t101.5 74v247l-99 -65q-68 -45 -67.5 -150.5z" />
<glyph unicode="&#xe1;" horiz-adv-x="606" d="M43 221q0 168 141 254l187 111v221q0 86 -81 86t-81 -96v-68q0 -51 6 -96q-27 -6 -54.5 -6t-51.5 8q-49 12 -50 47v168q0 82 65 128t171 46q229 0 229 -203v-651q0 -43 15.5 -61.5t58.5 -18.5q2 -53 -27.5 -81.5t-85.5 -28.5q-86 0 -104 63q-63 -63 -149.5 -63 t-137.5 65.5t-51 175.5zM204.5 224.5q0.5 -105.5 65 -105.5t101.5 74v247l-99 -65q-68 -45 -67.5 -150.5zM236 1135q0 6 4 12l69 168l27 90q145 -45 145 -72q0 -6 -6 -16l-119 -174l-37 -62q-84 31 -83 54z" />
<glyph unicode="&#xe2;" horiz-adv-x="606" d="M43 221q0 168 141 254l187 111v221q0 86 -81 86t-81 -96v-68q0 -51 6 -96q-27 -6 -54.5 -6t-51.5 8q-49 12 -50 47v168q0 82 65 128t171 46q229 0 229 -203v-651q0 -43 15.5 -61.5t58.5 -18.5q2 -53 -27.5 -81.5t-85.5 -28.5q-86 0 -104 63q-63 -63 -149.5 -63 t-137.5 65.5t-51 175.5zM90 1135q0 6 4 12l90 168l31 69q20 16 75.5 16.5t84.5 -14.5q10 -31 33 -71l90 -168q4 -6 4 -14.5t-10 -14.5l-76 -37q-10 27 -35 62l-86 123l-84 -123l-35 -62q-86 31 -86 54zM204.5 224.5q0.5 -105.5 65 -105.5t101.5 74v247l-99 -65 q-68 -45 -67.5 -150.5z" />
<glyph unicode="&#xe3;" horiz-adv-x="606" d="M43 221q0 168 141 254l187 111v221q0 86 -81 86t-81 -96v-68l6 -96q-27 -6 -54.5 -6t-51.5 8q-49 12 -50 47v168q0 82 65 128t171 46q229 0 229 -203v-651q0 -43 15.5 -61.5t58.5 -18.5q2 -53 -27.5 -81.5t-85.5 -28.5q-86 0 -104 63q-63 -63 -149.5 -63t-137.5 65.5 t-51 175.5zM61 1210q0 8 2 19q10 76 97 76q12 0 26 -2l187 -27q31 -2 44 8t19 43q39 -2 57.5 -26.5t18.5 -45.5q0 -102 -98 -102q-12 0 -27 2l-184 29q-31 0 -44.5 -11.5t-19.5 -42.5q-78 8 -78 80zM204.5 224.5q0.5 -105.5 65 -105.5t101.5 74v247l-99 -65 q-68 -45 -67.5 -150.5z" />
<glyph unicode="&#xe4;" horiz-adv-x="606" d="M43 221q0 168 141 254l187 111v221q0 86 -81 86t-81 -96v-68l6 -96q-27 -6 -54.5 -6t-51.5 8q-49 12 -50 47v168q0 82 65 128t171 46q229 0 229 -203v-651q0 -43 15.5 -61.5t58.5 -18.5q2 -53 -27.5 -81.5t-85.5 -28.5q-86 0 -104 63q-63 -63 -149.5 -63t-137.5 65.5 t-51 175.5zM86 1224.5q0 116.5 88 116.5t88 -116.5t-88 -116.5t-88 116.5zM204.5 224.5q0.5 -105.5 65 -105.5t101.5 74v247l-99 -65q-68 -45 -67.5 -150.5zM317 1224.5q0 116.5 88.5 116.5t88.5 -116.5t-88.5 -116.5t-88.5 116.5z" />
<glyph unicode="&#xe5;" horiz-adv-x="606" d="M43 221q0 168 141 254l187 111v221q0 86 -81 86t-81 -96v-68q0 -51 6 -96q-27 -6 -54.5 -6t-51.5 8q-49 12 -50 47v168q0 82 65 128t171 46q229 0 229 -203v-651q0 -43 15.5 -61.5t58.5 -18.5q2 -53 -27.5 -81.5t-85.5 -28.5q-86 0 -104 63q-63 -63 -149.5 -63 t-137.5 65.5t-51 175.5zM119 1257v70q0 121 170 121t170 -117v-69q0 -121 -170 -121.5t-170 116.5zM204.5 224.5q0.5 -105.5 65 -105.5t101.5 74v247l-99 -65q-68 -45 -67.5 -150.5zM213 1266q0 -49 76 -49t76 49v57q0 49 -76 49t-76 -49v-57z" />
<glyph unicode="&#xe6;" horiz-adv-x="890" d="M43 221q0 193 147 246l181 65v287q0 74 -81 74t-81 -96v-68l6 -96q-27 -6 -54.5 -6t-51.5 8q-49 12 -50 47v168q0 82 64.5 128t168 46t154.5 -51q51 51 162 51q236 0 236 -225q0 -119 -33 -186.5t-109 -98.5l-178 -70v-258q0 -76 81 -75.5t81 96.5v47l-6 96q27 6 54.5 6 t51.5 -8q49 -12 50 -47v-147q0 -82 -64.5 -128t-183.5 -46t-176 73q-59 -74 -157.5 -73.5t-155 66t-56.5 175.5zM205 233q0 -53 21.5 -83.5t54.5 -30.5q53 0 90 74v204l-99 -39q-67 -27 -67 -125zM524 582l99 41q63 24 63 182q0 41 -24.5 64.5t-61.5 23.5q-76 0 -76 -68 v-243z" />
<glyph unicode="&#xe7;" horiz-adv-x="573" d="M66 209v614q0 201 237 201q104 0 163.5 -47t59.5 -127v-168q0 -35 -49 -47q-25 -8 -52.5 -8t-53.5 6q6 45 6 96v68q0 51 -18.5 73.5t-63.5 22.5q-76 0 -76 -64v-596q0 -63 20.5 -91.5t68.5 -28.5t93.5 30.5t57.5 63.5q82 -37 82 -107q0 -23 -19 -37q-55 -57 -145 -75v-47 h29q137 0 137 -127q0 -66 -31 -95.5t-98 -29.5h-95l-67 -6q-8 35 -8 60.5t18 25.5h137q43 0 43 45t-43 45h-129v121q-205 2 -204 229z" />
<glyph unicode="&#xe8;" horiz-adv-x="583" d="M66 182v641q0 201 236.5 201t236.5 -225q0 -90 -33 -166t-90 -115l-197 -135v-186q0 -86 81 -86t81 96v47l-6 96q27 6 54.5 6t51.5 -8q49 -12 49 -47v-147q0 -82 -64.5 -128t-170.5 -46q-229 -1 -229 202zM115 1335q0 14 52 36t73 28l20 6q8 -47 27 -90l69 -168 q4 -6 4 -14.5t-10 -14.5l-74 -37q-14 27 -36 62l-119 174q-6 10 -6 18zM219 537l98 73q64 48 64 195q0 41 -24.5 64.5t-61.5 23.5q-76 0 -76 -64v-292z" />
<glyph unicode="&#xe9;" horiz-adv-x="583" d="M66 182v641q0 201 236.5 201t236.5 -225q0 -90 -33 -166t-90 -115l-197 -135v-186q0 -86 81 -86t81 96v47q0 51 -6 96q27 6 54.5 6t51.5 -8q49 -12 49 -47v-147q0 -82 -64.5 -128t-170.5 -46q-229 0 -229 202zM219 537l98 73q63 47 64 195q0 41 -24.5 64.5t-61.5 23.5 q-76 -1 -76 -64v-292zM227 1135q0 6 4 12l70 168l27 90q145 -45 145 -72q0 -6 -6 -16l-119 -174l-37 -62q-84 31 -84 54z" />
<glyph unicode="&#xea;" horiz-adv-x="583" d="M66 182v641q0 201 236.5 201t236.5 -225q0 -90 -33 -166t-90 -115l-197 -135v-186q0 -86 81 -86t81 96v47q0 51 -6 96q27 6 54.5 6t51.5 -8q49 -12 49 -47v-147q0 -82 -64.5 -128t-170.5 -46q-229 0 -229 202zM94 1135q0 6 4 12l90 168l31 69q20 16 75.5 16.5t84.5 -14.5 q10 -31 33 -71l90 -168q4 -6 4 -14.5t-10 -14.5l-76 -37q-10 27 -35 62l-86 123l-84 -123l-35 -62q-86 31 -86 54zM219 537l98 73q63 47 64 195q0 41 -24.5 64.5t-61.5 23.5q-76 -1 -76 -64v-292z" />
<glyph unicode="&#xeb;" horiz-adv-x="583" d="M66 182v641q0 201 236.5 201t236.5 -225q0 -90 -33 -166t-90 -115l-197 -135v-186q0 -86 81 -86t81 96v47l-6 96q27 6 54.5 6t51.5 -8q49 -12 49 -47v-147q0 -82 -64.5 -128t-170.5 -46q-229 -1 -229 202zM92 1224.5q0 116.5 88 116.5t88 -116.5t-88 -116.5t-88 116.5z M219 537l98 73q64 48 64 195q0 41 -24.5 64.5t-61.5 23.5q-76 0 -76 -64v-292zM324 1224.5q0 116.5 88 116.5t88 -116.5t-88 -116.5t-88 116.5z" />
<glyph unicode="&#xec;" horiz-adv-x="333" d="M-8 1335q0 14 52 36t73 28l20 6q8 -47 27 -90l69 -168q4 -6 4.5 -14.5t-10.5 -14.5l-73 -37q-14 27 -37 62l-119 174q-6 10 -6 18zM10.5 963.5q-0.5 40.5 26.5 40.5h205v-834q0 -43 15 -61.5t58 -18.5q2 -53 -27.5 -81.5t-87 -28.5t-85 34.5t-27.5 114.5v752l-63 -11 q-14 53 -14.5 93.5z" />
<glyph unicode="&#xed;" horiz-adv-x="333" d="M12 973q0 31 27 31h205v-834q0 -43 15 -61.5t58 -18.5q2 -53 -27.5 -81.5t-87 -28.5t-85 34.5t-27.5 114.5v752q-31 0 -63 -11zM70 1135q0 6 4 12l69 168l27 90q145 -45 145 -72q0 -6 -6 -16l-119 -174l-36 -62q-84 31 -84 54z" />
<glyph unicode="&#xee;" horiz-adv-x="333" d="M-39 1135q0 6 4 12l90 168l31 69q20 16 75.5 16.5t84.5 -14.5q10 -31 33 -71l90 -168q4 -6 4 -14.5t-11 -14.5l-75 -37q-10 27 -35 62l-86 123l-84 -123l-35 -62q-86 31 -86 54zM12 973q0 31 27 31h205v-834q0 -43 15 -61.5t58 -18.5q2 -53 -27.5 -81.5t-87 -28.5 t-85 34.5t-27.5 114.5v752q-31 0 -63 -11z" />
<glyph unicode="&#xef;" horiz-adv-x="333" d="M-35 1347.5q0 116.5 88 116.5t88 -116.5t-88 -116.5t-88 116.5zM12.5 963.5q-0.5 40.5 26.5 40.5h205v-834q0 -43 15 -61.5t58 -18.5q2 -53 -27.5 -81.5t-87 -28.5t-85 34.5t-27.5 114.5v752l-63 -11q-14 53 -14.5 93.5zM184 1347.5q0 116.5 88 116.5t88 -116.5 t-88 -116.5t-88 116.5z" />
<glyph unicode="&#xf0;" horiz-adv-x="602" d="M66 197v618q0 209 176 209q78 0 135 -53v164q-59 -45 -84 -74q-29 18 -52.5 51t-0.5 49l96 68q-20 10 -49 10t-64 -10l-28 100q41 23 119.5 23t136.5 -37l81 74q27 -20 45.5 -46t18.5 -36.5t-14 -20.5l-66 -45q14 -47 14 -92v-961q0 -102 -60 -155t-168.5 -53t-172 57 t-63.5 160zM219 188q0 -36 21.5 -59t56.5 -23t57.5 24t22.5 58v631q-35 63 -98 64q-59 0 -60 -70v-625z" />
<glyph unicode="&#xf1;" horiz-adv-x="638" d="M16 913q-2 53 28 82t95.5 29t93.5 -63q68 63 147 63t127 -51t48 -146v-657q0 -43 15.5 -61.5t58.5 -18.5q2 -53 -28 -81.5t-87 -28.5t-85 34.5t-28 114.5v686q0 68 -69 68q-57 0 -88 -64v-651q0 -100 14 -168q-61 -8 -133 -8q-35 0 -35 31v811q0 43 -15.5 61t-58.5 18z M76 1210q0 8 2 19q10 76 96 76q12 0 27 -2l186 -27q31 -2 44 8t20 43q39 -2 57 -26.5t18 -45.5q0 -102 -98 -102q-12 0 -27 2l-184 29q-31 0 -44 -11.5t-19 -42.5q-78 8 -78 80z" />
<glyph unicode="&#xf2;" horiz-adv-x="595" d="M66 188v619q0 102 63.5 159.5t172 57.5t168.5 -53t60 -156v-618q0 -102 -64.5 -159.5t-173 -57.5t-167.5 53t-59 155zM139 1335q0 14 52.5 36t72.5 28l21 6q8 -47 26 -90l70 -168q4 -6 4 -14.5t-10 -14.5l-74 -37q-14 27 -37 62l-119 174q-6 10 -6 18zM219 188 q0 -35 22.5 -58.5t56.5 -23.5t56.5 24t22.5 58v627q0 35 -22.5 58.5t-56.5 23.5t-56.5 -23.5t-22.5 -58.5v-627z" />
<glyph unicode="&#xf3;" horiz-adv-x="595" d="M66 188v619q0 102 63.5 159.5t172 57.5t168.5 -53t60 -156v-618q0 -102 -64.5 -159.5t-173 -57.5t-167.5 53t-59 155zM219 188q0 -35 22.5 -58.5t56.5 -23.5t56.5 24t22.5 58v627q0 35 -22.5 58.5t-56.5 23.5t-56.5 -23.5t-22.5 -58.5v-627zM246 1135q0 6 4 12l69 168 l27 90q145 -45 146 -72q0 -6 -7 -16l-118 -174l-37 -62q-84 31 -84 54z" />
<glyph unicode="&#xf4;" horiz-adv-x="595" d="M66 188v619q0 102 63.5 159.5t172 57.5t168.5 -53t60 -156v-618q0 -102 -64.5 -159.5t-173 -57.5t-167.5 53t-59 155zM92 1135q0 6 4 12l90 168l31 69q20 16 75.5 16.5t84.5 -14.5q10 -31 33 -71l90 -168q4 -6 4 -14.5t-10 -14.5l-76 -37q-10 27 -35 62l-86 123l-84 -123 l-35 -62q-86 31 -86 54zM219 188q0 -35 22.5 -58.5t56.5 -23.5t56.5 24t22.5 58v627q0 35 -22.5 58.5t-56.5 23.5t-56.5 -23.5t-22.5 -58.5v-627z" />
<glyph unicode="&#xf5;" horiz-adv-x="595" d="M66 188v619q0 102 63.5 159.5t172 57.5t168.5 -53t60 -156v-618q0 -102 -64.5 -159.5t-173 -57.5t-167.5 53t-59 155zM72 1210q0 8 2 19q10 76 96 76q12 0 27 -2l186 -27q31 -2 44 8t19 43q39 -2 57.5 -26.5t18.5 -45.5q0 -102 -98 -102q-12 0 -27 2l-184 29 q-31 0 -44 -11.5t-19 -42.5q-78 8 -78 80zM219 188q0 -35 22.5 -58.5t56.5 -23.5t56.5 24t22.5 58v627q0 35 -22.5 58.5t-56.5 23.5t-56.5 -23.5t-22.5 -58.5v-627z" />
<glyph unicode="&#xf6;" horiz-adv-x="595" d="M66 188v619q0 102 63.5 159.5t172 57.5t168.5 -53t60 -156v-618q0 -102 -64.5 -159.5t-173 -57.5t-167.5 53t-59 155zM94 1224.5q0 116.5 88 116.5t88 -116.5t-88 -116.5t-88 116.5zM219 188q0 -35 22.5 -58.5t56.5 -23.5t56.5 24t22.5 58v627q0 35 -22.5 58.5 t-56.5 23.5t-56.5 -23.5t-22.5 -58.5v-627zM326 1224.5q0 116.5 88 116.5t88 -116.5t-88 -116.5t-88 116.5z" />
<glyph unicode="&#xf7;" horiz-adv-x="538" d="M37 644q0 40 26 40h324l107 10q10 -53 10 -93t-27 -40h-323q-68 0 -103 -10q-14 53 -14 93zM182 342q0 117 88 117t88 -117t-88 -117t-88 117zM182 903q0 117 88 117t88 -117t-88 -117t-88 117z" />
<glyph unicode="&#xf8;" horiz-adv-x="610" d="M-23 -58.5q0 11.5 5 17.5l92 186q-2 12 -2 43v619q0 102 63.5 159.5t175 57.5t172.5 -61v2q23 57 35 116q33 4 53 4q63 0 64 -32q0 -6 -4 -15l-96 -192q2 -10 2 -31v-618q0 -102 -64.5 -159.5t-173.5 -57.5t-168 53q-18 -47 -37 -121q-23 -2 -48.5 -2t-47 10t-21.5 21.5z M225 188q0 -34 22.5 -58t56.5 -24t56.5 24t22.5 58v353l-158 -318v-35zM225 444l158 318v53q0 35 -22.5 58.5t-56.5 23.5t-56.5 -23.5t-22.5 -58.5v-371z" />
<glyph unicode="&#xf9;" horiz-adv-x="638" d="M10 913q-2 51 30 81t89 30t83 -33t26 -108v-693q0 -72 59 -71q31 0 58.5 23.5t39.5 50.5v643q0 100 -14 168q61 8 133 8q35 0 35 -31v-811q0 -43 15.5 -61.5t58.5 -18.5q2 -53 -28 -81.5t-85 -28.5q-82 0 -104 63q-63 -63 -143.5 -63t-129.5 54t-49 154v646 q0 43 -15.5 61t-58.5 18zM147 1335q0 14 52.5 36t72.5 28l21 6q8 -47 26 -90l70 -168q4 -6 4 -14.5t-10 -14.5l-74 -37q-14 27 -37 62l-118 174q-6 10 -7 18z" />
<glyph unicode="&#xfa;" horiz-adv-x="638" d="M10 913q-2 51 30 81t89 30t83 -33t26 -108v-693q0 -72 59 -71q31 0 58.5 23.5t39.5 50.5v643q0 102 -14 168l133 8q35 0 35 -31v-811q0 -43 15.5 -61.5t58.5 -18.5q2 -53 -28 -81.5t-85 -28.5q-82 0 -104 63q-63 -63 -143.5 -63t-129.5 54t-49 154v646q0 43 -15.5 61 t-58.5 18zM252 1135q0 6 4 12l70 168l26 90q145 -45 146 -72q0 -6 -6 -16l-119 -174l-37 -62q-84 31 -84 54z" />
<glyph unicode="&#xfb;" horiz-adv-x="636" d="M8 913q-2 51 30 81t89 30t83 -33t26 -108v-693q0 -72 59 -71q31 0 58.5 23.5t39.5 50.5v643q0 102 -14 168l133 8q35 0 35 -31v-811q0 -43 15.5 -61.5t58.5 -18.5q2 -53 -28 -81.5t-85 -28.5q-82 0 -105 63q-63 -63 -143 -63t-129 54t-49 154v646q0 43 -15.5 61t-58.5 18 zM109 1135q0 6 4 12l90 168l30 69q20 16 76 16.5t84 -14.5q10 -31 33 -71l90 -168q4 -6 4 -14.5t-10 -14.5l-76 -37q-10 27 -35 62l-86 123l-84 -123l-34 -62q-86 31 -86 54z" />
<glyph unicode="&#xfc;" horiz-adv-x="638" d="M10 913q-2 51 30 81t89 30t83 -33t26 -108v-693q0 -72 59 -71q31 0 58.5 23.5t39.5 50.5v643q0 100 -14 168q61 8 133 8q35 0 35 -31v-811q0 -43 15.5 -61.5t58.5 -18.5q2 -53 -28 -81.5t-85 -28.5q-82 0 -104 63q-63 -63 -143.5 -63t-129.5 54t-49 154v646 q0 43 -15.5 61t-58.5 18zM111 1224.5q0 116.5 88 116.5t88 -116.5t-88 -116.5t-88 116.5zM342 1224.5q0 116.5 88 116.5t88 -116.5t-88 -116.5t-88 116.5z" />
<glyph unicode="&#xfd;" horiz-adv-x="622" d="M10 913q-2 51 30 81t89 30t83 -33t26 -108v-654q0 -68 53 -67q29 0 59.5 19.5t44.5 43.5v611q0 102 -14 168l133 8q35 0 35 -31v-1126q0 -92 -64.5 -139.5t-173 -47.5t-168 41t-59.5 113v76q0 35 49 49q25 6 52.5 6t54.5 -6l-7 -86v-11q0 -51 81 -51t81 72v203 q-51 -51 -132 -51t-130 52t-49 152v607q0 43 -15.5 61t-58.5 18zM231 1135q0 6 5 12l69 168l27 90q145 -45 145 -72q0 -6 -6 -16l-119 -174l-37 -62q-84 31 -84 54z" />
<glyph unicode="&#xfe;" horiz-adv-x="604" d="M55 1395q61 33 131 32q41 0 41 -30v-426q63 53 131 53q180 0 181 -209v-598q0 -102 -63.5 -159.5t-172.5 -57.5h-76v-164l15 -135q-55 -23 -127 -23q-41 0 -41 31v1561q0 61 -19 125zM227 131h80q35 0 56.5 21.5t21.5 56.5v604q0 70 -61.5 70t-96.5 -64v-688z" />
<glyph unicode="&#xff;" horiz-adv-x="622" d="M10 913q-2 51 30 81t89 30t83 -33t26 -108v-654q0 -68 53 -67q29 0 59.5 19.5t44.5 43.5v611q0 100 -14 168q61 8 133 8q35 0 35 -31v-1126q0 -92 -64.5 -139.5t-173 -47.5t-168 41t-59.5 113v76q0 35 49 49q25 6 52.5 6t54.5 -6q-6 -49 -7 -86v-11q0 -51 81 -51t81 72 v203q-51 -51 -132 -51t-130 52t-49 152v607q0 43 -15.5 61t-58.5 18zM90 1224.5q0 116.5 88 116.5t88 -116.5t-88 -116.5t-88 116.5zM322 1224.5q0 116.5 88 116.5t88 -116.5t-88 -116.5t-88 116.5z" />
<glyph unicode="&#x152;" horiz-adv-x="980" d="M68 188v947q0 102 69.5 159.5t183 57.5t183.5 -54q66 53 176.5 53.5t178 -52t67.5 -136.5v-172q0 -37 -54 -51q-29 -8 -57.5 -8t-56.5 6q6 49 6 104v93q0 82 -90 82q-41 0 -66.5 -20.5t-25.5 -55.5v-455h118q53 0 111 10q16 -57 16 -112q0 -33 -28 -33h-217v-354 q0 -39 25.5 -60.5t68.5 -21.5t69.5 21.5t26.5 60.5v51l-6 104q29 6 57.5 6t57.5 -8q53 -14 53 -51v-131q0 -84 -69.5 -136t-183.5 -52t-181 57q-72 -57 -186.5 -57t-180 53t-65.5 155zM229 197q0 -37 26 -59.5t69 -22.5t69.5 21.5t26.5 60.5v938q0 39 -26.5 60.5t-69.5 21.5 t-69 -21.5t-26 -60.5v-938z" />
<glyph unicode="&#x153;" horiz-adv-x="894" d="M66 188v619q0 102 63.5 159.5t162.5 57.5t159 -55q47 55 163 55q236 0 236 -225q0 -90 -33 -166t-90 -115l-197 -135v-197q2 -76 82 -75.5t80 96.5v47l-6 96q27 6 54.5 6t52.5 -8q49 -12 49 -47v-147q0 -82 -64.5 -128t-169 -46t-164.5 55q-59 -55 -159.5 -55t-159.5 53 t-59 155zM219 188q0 -35 22.5 -58.5t55.5 -23.5t56.5 21.5t23.5 52.5v635q0 35 -22.5 58.5t-56.5 23.5t-56.5 -23.5t-22.5 -58.5v-627zM530 537l99 73q63 48 63 195q0 41 -24.5 64.5t-61.5 23.5q-76 0 -76 -64v-292z" />
<glyph unicode="&#x178;" horiz-adv-x="675" d="M10 1235q0 117 131 117q109 0 109 -142v-538q0 -74 74.5 -74t115.5 72v493q0 100 -14 168q70 8 141 8q35 0 35 -30v-1112q0 -102 -69.5 -159.5t-187.5 -57.5t-187.5 52t-69.5 136v139q0 37 53 51q29 8 57.5 8.5t57.5 -6.5q-6 -49 -6 -104v-59q0 -39 26.5 -60.5 t69.5 -21.5t68.5 21.5t25.5 60.5v319q-53 -53 -143 -53q-209 0 -209 196v498q0 43 -17.5 60.5t-60.5 17.5zM139 1552.5q0 116.5 88 116.5t88 -116.5t-88 -116.5t-88 116.5zM371 1552.5q0 116.5 88 116.5t88 -116.5t-88 -116.5t-88 116.5z" />
<glyph unicode="&#x2c6;" horiz-adv-x="677" d="M217 1135q0 6 4 12l90 168l31 69q20 16 75.5 16.5t84.5 -14.5q10 -31 33 -71l90 -168q4 -6 4 -14.5t-11 -14.5l-75 -37q-10 27 -35 62l-86 123l-84 -123l-35 -62q-86 31 -86 54z" />
<glyph unicode="&#x2dc;" horiz-adv-x="628" d="M80 1210q0 8 2 19q10 76 96 76q12 0 27 -2l186 -27q31 -2 44.5 8t19.5 43q39 -2 57 -26.5t18 -45.5q0 -102 -98 -102q-12 0 -26 2l-185 29q-31 0 -44 -11.5t-19 -42.5q-78 8 -78 80z" />
<glyph unicode="&#x2000;" horiz-adv-x="866" />
<glyph unicode="&#x2001;" horiz-adv-x="1733" />
<glyph unicode="&#x2002;" horiz-adv-x="866" />
<glyph unicode="&#x2003;" horiz-adv-x="1733" />
<glyph unicode="&#x2004;" horiz-adv-x="577" />
<glyph unicode="&#x2005;" horiz-adv-x="433" />
<glyph unicode="&#x2006;" horiz-adv-x="288" />
<glyph unicode="&#x2007;" horiz-adv-x="288" />
<glyph unicode="&#x2008;" horiz-adv-x="216" />
<glyph unicode="&#x2009;" horiz-adv-x="346" />
<glyph unicode="&#x200a;" horiz-adv-x="96" />
<glyph unicode="&#x2010;" horiz-adv-x="548" d="M61.5 644q-0.5 40 26.5 40h283l106 10q10 -53 10 -93t-26 -40h-283q-68 0 -102 -10q-14 53 -14.5 93z" />
<glyph unicode="&#x2011;" horiz-adv-x="548" d="M61.5 644q-0.5 40 26.5 40h283l106 10q10 -53 10 -93t-26 -40h-283q-68 0 -102 -10q-14 53 -14.5 93z" />
<glyph unicode="&#x2012;" horiz-adv-x="548" d="M61.5 644q-0.5 40 26.5 40h283l106 10q10 -53 10 -93t-26 -40h-283q-68 0 -102 -10q-14 53 -14.5 93z" />
<glyph unicode="&#x2013;" horiz-adv-x="589" d="M61.5 644q-0.5 40 26.5 40h324l106 10q10 -53 10 -93t-26 -40h-324q-68 0 -102 -10q-14 53 -14.5 93z" />
<glyph unicode="&#x2014;" horiz-adv-x="958" d="M61.5 644q-0.5 40 26.5 40h692l107 10q10 -53 10 -93t-27 -40h-692q-68 0 -102 -10q-14 53 -14.5 93z" />
<glyph unicode="&#x2018;" horiz-adv-x="317" d="M35 1305q0 123 88 122.5t88 -116.5q0 -145 72 -146q2 -43 -24 -64.5t-76 -21.5t-99 70t-49 156z" />
<glyph unicode="&#x2019;" horiz-adv-x="317" d="M35 1165q72 0 71 146q0 117 88.5 117t88.5 -123q0 -88 -47.5 -157t-98.5 -69q-106 0 -102 86z" />
<glyph unicode="&#x201a;" horiz-adv-x="280" d="M-12 -49q72 0 71 145q0 117 88.5 117t88.5 -123q0 -90 -41 -157.5t-97 -67.5q-115 0 -110 86z" />
<glyph unicode="&#x201c;" horiz-adv-x="581" d="M35 1305q0 123 88 122.5t88 -116.5q0 -145 72 -146q2 -43 -24 -64.5t-76 -21.5t-99 70t-49 156zM299 1305q0 123 88 122.5t88 -116.5q0 -145 72 -146q2 -43 -23.5 -64.5t-76 -21.5t-99.5 70t-49 156z" />
<glyph unicode="&#x201d;" horiz-adv-x="579" d="M35 1165q72 0 71 146q0 117 88.5 117t88.5 -123q0 -86 -49.5 -156t-98.5 -70q-104 0 -100 86zM299 1165q72 0 72 146q0 117 88 117t88 -123q0 -86 -49 -156t-101 -70q-102 0 -98 86z" />
<glyph unicode="&#x201e;" horiz-adv-x="567" d="M-12 -49q72 0 71 145q0 117 88.5 117t88.5 -123q0 -90 -41 -157.5t-97 -67.5q-115 0 -110 86zM274 -49q72 0 72 145q0 117 88 117t88 -123q0 -90 -41 -157.5t-96 -67.5q-115 0 -111 86z" />
<glyph unicode="&#x2022;" horiz-adv-x="440" d="M90 683q0 161 130 161t130 -161t-130 -161t-130 161z" />
<glyph unicode="&#x2026;" horiz-adv-x="819" d="M47 96.5q0 116.5 88 116.5t88 -116.5t-88 -116.5t-88 116.5zM322 96.5q0 116.5 88 116.5t88 -116.5t-88 -116.5t-88 116.5zM596 96.5q0 116.5 88 116.5t88 -116.5t-88 -116.5t-88 116.5z" />
<glyph unicode="&#x202f;" horiz-adv-x="346" />
<glyph unicode="&#x2039;" horiz-adv-x="479" d="M16 496l236 407q24 43 47 119q70 -4 106.5 -25.5t36.5 -34t-4 -20.5l-262 -448l186 -318q29 -49 80 -100q-41 -59 -88 -86q-16 -8 -29.5 -8t-21.5 14z" />
<glyph unicode="&#x203a;" horiz-adv-x="481" d="M37 37q0 12 4 20l262 449l-186 317q-29 49 -80 101q41 59 88 86q16 8 29.5 8t21.5 -14l287 -500l-236 -408q-24 -43 -47 -119q-70 4 -106.5 26t-36.5 34z" />
<glyph unicode="&#x205f;" horiz-adv-x="433" />
<glyph unicode="&#x20ac;" horiz-adv-x="663" d="M35 515q0 40 26 40h91v170q-68 0 -103 -10q-14 53 -14 93t26 40h91v287q0 102 69.5 159.5t190.5 57.5h96l102 10q16 -57 17 -113q0 -33 -29 -32h-190q-43 0 -69 -21.5t-26 -60.5v-287h113l106 10q10 -53 10.5 -93t-26.5 -40h-203v-170h113l106 10q10 -53 10.5 -93 t-26.5 -40h-203v-235q0 -37 26 -59.5t69 -22.5h186q29 0 29 -29q0 -55 -17 -117q-45 10 -102 11h-96q-121 0 -188.5 53t-67.5 155v244q-51 0 -103 -10q-14 53 -14 93z" />
<glyph unicode="&#x2122;" horiz-adv-x="1341" d="M68 1302.5q0 34.5 22 34.5h293l86 6q12 -43 12 -76.5t-22 -33.5h-123v-531l6 -145q-53 -10 -106 -10q-25 0 -25 28v658h-47l-86 -10q-10 45 -10 79.5zM522 1247q-2 41 21.5 65.5t75 24.5t73.5 -53q66 53 127 53q96 0 133 -61q70 61 135 61q156 0 156 -157v-490 q0 -33 13.5 -46t46.5 -13q0 -92 -101 -92q-84 0 -84 110v522q0 61 -61 62q-41 0 -82 -41v-490l6 -145q-53 -10 -107 -10q-23 0 -22 28v596q0 62 -61 62q-47 0 -86 -43v-488l6 -145q-53 -10 -105 -10q-27 0 -26 28v607q0 37 -12.5 51t-45.5 14z" />
<glyph unicode="&#x25fc;" horiz-adv-x="1024" d="M0 0v1024h1024v-1024h-1024z" />
<glyph unicode="&#xfb01;" horiz-adv-x="665" d="M20.5 963.5q-0.5 40.5 26.5 40.5h51v227q0 90 61.5 146.5t177.5 56.5t182.5 -56.5t66.5 -160t-113 -103.5q-27 0 -59 6q6 39 6 90v9q0 84 -84 84t-84 -93v-206h242l81 10q10 -53 10.5 -88t-10.5 -41v-715q0 -43 15.5 -61.5t58.5 -18.5q2 -53 -27.5 -81.5t-87 -28.5 t-85 34.5t-27.5 114.5v752h-170v-713q0 -98 14 -164q-61 -12 -133 -12q-35 0 -35 31v858l-63 -11q-14 53 -14.5 93.5z" />
<glyph unicode="&#xfb02;" horiz-adv-x="665" d="M20.5 963.5q-0.5 40.5 26.5 40.5h51v227q0 92 58.5 147.5t143.5 55.5t134 -31q49 25 95 24.5t46 -30.5v-1227q0 -43 15.5 -61.5t58.5 -18.5q2 -53 -27.5 -81.5t-87 -28.5t-85 34.5t-27.5 114.5v1141q-43 33 -94 33q-76 0 -76 -93v-206h6l107 10q10 -53 10 -93t-27 -40 h-96v-713q0 -98 14 -164q-61 -12 -133 -12q-35 0 -35 31v858l-63 -11q-14 53 -14.5 93.5z" />
</font>
</defs>
</svg>
